<?xml version="1.0" encoding="UTF-8" standalone="no"?>
<!-- Created with Inkscape (http://www.inkscape.org/) -->

<svg
   xmlns:dc="http://purl.org/dc/elements/1.1/"
   xmlns:cc="http://creativecommons.org/ns#"
   xmlns:rdf="http://www.w3.org/1999/02/22-rdf-syntax-ns#"
   xmlns:svg="http://www.w3.org/2000/svg"
   xmlns="http://www.w3.org/2000/svg"
   xmlns:sodipodi="http://sodipodi.sourceforge.net/DTD/sodipodi-0.dtd"
   xmlns:inkscape="http://www.inkscape.org/namespaces/inkscape"
   version="1.1"
   id="svg923"
   width="512"
   height="512"
   viewBox="0 0 512 512"
   sodipodi:docname="Lightbulb-Icon.svg"
   inkscape:version="0.92.4 (5da689c313, 2019-01-14)">
  <metadata
     id="metadata929">
    <rdf:RDF>
      <cc:Work
         rdf:about="">
        <dc:format>image/svg+xml</dc:format>
        <dc:type
           rdf:resource="http://purl.org/dc/dcmitype/StillImage" />
        <dc:title></dc:title>
      </cc:Work>
    </rdf:RDF>
  </metadata>
  <defs
     id="defs927" />
  <sodipodi:namedview
     pagecolor="#ffffff"
     bordercolor="#666666"
     borderopacity="1"
     objecttolerance="10"
     gridtolerance="10"
     guidetolerance="10"
     inkscape:pageopacity="0"
     inkscape:pageshadow="2"
     inkscape:window-width="1920"
     inkscape:window-height="1017"
     id="namedview925"
     showgrid="false"
     inkscape:zoom="1.10625"
     inkscape:cx="179.37606"
     inkscape:cy="229.6734"
     inkscape:window-x="-8"
     inkscape:window-y="-8"
     inkscape:window-maximized="1"
     inkscape:current-layer="svg923" />
  <g
     id="g2047"
     transform="matrix(0.07427643,0,0,0.07406454,3.1169404,473.08136)">
    <path
       inkscape:connector-curvature="0"
       id="path1476"
       d="m 3341.2331,510.5828 c -124.3348,-2.5705 -248.1249,-11.8689 -373.2332,-28.0349 -32.1828,-4.1587 -93.7792,-13.2375 -96,-14.1498 -1.1,-0.4517 -2.4694,-0.7197 -3.0432,-0.5954 -4.7272,1.0245 -144.281,-25.3168 -195.6234,-36.9247 -6.2334,-1.4093 -19.7334,-4.4449 -30,-6.7459 -10.2667,-2.301 -19.5667,-4.5513 -20.6667,-5.0008 -1.1,-0.4494 -3.2095,-0.982 -4.6877,-1.1833 -3.2104,-0.4373 -72.2247,-17.7472 -89.3123,-22.4011 -23.3365,-6.3556 -52.19,-14.4466 -67.3333,-18.8814 -8.4334,-2.4699 -20.4334,-5.9774 -26.6667,-7.7946 -41.2504,-12.0258 -122.8735,-38.7664 -166.6667,-54.6017 -9.1666,-3.3145 -21.7666,-7.834 -28,-10.0431 -26.8492,-9.5154 -104.8336,-39.9102 -121.3292,-47.2888 -3.3022,-1.477 -6.621,-2.8196 -7.3749,-2.9833 -8.8761,-1.9284 -166.7101,-72.7383 -187.2958,-84.0276 -2.8547,-1.5655 -31.5607,-15.912 -64.6667,-32.3188 -42.3293,-20.9777 -161.8188,-86.826504 -163.1111,-89.888004 -0.2445,-0.5792 -1.021,-1.0529 -1.7257,-1.0529 -2.7043,0 -18.3131,-9.8848 -17.5524,-11.1156 0.4407,-0.7131 0.1396,-0.8875 -0.6691,-0.3878 -1.2534,0.7747 -15.7584,-7.6805 -65.6084,-38.2441999 -4.7666,-2.9226 -22.6604,-14.3748001 -39.7638,-25.4498001 -17.1035,-11.0748 -33.9035,-21.9184 -37.3334,-24.0969 -14.5618,-9.2492 -36.107,-24.3903 -35.5289,-24.9684 0.3444,-0.3444 -0.2349,-0.6263 -1.2872,-0.6263 -1.0524,0 -4.5024,-1.9301 -7.6667,-4.289 -3.1644,-2.3591 -11.2918,-8.0706 -18.0612,-12.6923 -6.7692,-4.6216 -11.8692,-8.887696 -11.3333,-9.480096 0.536,-0.5924 0.3304,-0.711 -0.4568,-0.2635 -1.4883,0.846 -23.6357,-14.2079 -22.5299,-15.3137 0.3454,-0.3454 -0.172,-0.628 -1.1497,-0.628 -0.9776,0 -5.6276,-2.8215 -10.3333,-6.27 -80.9514,-59.3252 -128.8137,-96.0473 -128.1894,-98.3529 0.2015,-0.7442 -0.1578,-1.0291 -0.7984,-0.6332 -0.6406,0.396 -2.9055,-0.7015 -5.033,-2.4387 -2.1276,-1.7372 -13.6294,-11.0559 -25.5596,-20.7083 -12.6788,-10.258 -21.3184,-18.1529 -20.794,-19.0014 0.5406,-0.8747 0.2778,-1.069 -0.6609,-0.4888 -0.9249,0.5716 -6.2928,-3.0167 -13.206,-8.8278 -57.328,-48.188 -63.042,-53.3704 -61.3036,-55.5998 1.4134,-1.8126 1.3565,-1.8907 -0.3883,-0.5336 -1.7019,1.3237 -4.7157,-0.7502 -18,-12.3866 -8.7757,-7.687 -16.5559,-14.7166 -17.2892,-15.6212 -0.7334,-0.9046 -3.0816,-2.9942 -5.2184,-4.6437 -4.436,-3.4244 -44.3687,-40.1483 -64.115,-58.9631 -12.5603,-11.9677 -118.89065,-118.324 -127.94426,-127.9753 -25.23806,-26.9044 -41.63371,-44.6813 -50.46504,-54.7168 -3.52513,-4.0057 -8.38012,-9.3832 -10.78884,-11.9499 -14.36797,-15.3101 -19.47181,-21.5825 -18.64713,-22.9169 0.52877,-0.8556 0.32704,-1.1261 -0.47163,-0.6325 -0.7676,0.4744 -5.39153,-3.783 -10.27541,-9.4607 -4.88388,-5.6777 -10.27492,-11.8232 -11.98008,-13.6565 -3.00467,-3.2306 -23.21558,-26.8623 -35.42756,-41.424 -3.3,-3.935 -5.91775,-7.9178 -5.8172,-8.8508 0.10053,-0.9331 -0.29596,-1.4007 -0.8811,-1.039 -2.31194,1.4288 -87.27625,-105.2366 -85.7689,-107.6757 0.48357,-0.7824 0.25925,-1.0393 -0.49849,-0.5711 -1.39548,0.8624 -35.98364,-44.2116 -35.36764,-46.0897 0.18333,-0.5591 -0.1764,-1.0164 -0.79939,-1.0164 -1.66385,0 -30.97244,-39.7764 -30.79091,-41.7881 0.0557,-0.6168 -0.73968,-1.8168 -1.76741,-2.6667 -3.70115,-3.0607 -36.97562,-50.5621 -36.97562,-52.7851 0,-0.7848 -0.48314,-1.4268 -1.07364,-1.4268 -1.38242,0 -43.13719,-62.3425 -63.89383,-95.3976 -0.89877,-1.4313 -9.36456,-14.9024 -18.81288,-29.9357 -24.5926,-39.1296 -28.31236,-45.3308 -27.20528,-45.3537 0.54209,-0.013 0.31324,-0.4612 -0.50855,-1 -1.4506,-0.9511 -8.53416,-12.0927 -15.45751,-24.313 -1.86962,-3.3 -8.33604,-14.4 -14.36983,-24.6666 -17.74749,-30.1979 -65.34515,-116.4095 -65.34515,-118.3571 0,-0.396 -2.16782,-4.5277 -4.8174,-9.1815 -5.05453,-8.878 -49.62497,-97.4772 -56.35333,-112.0218 -2.14729,-4.6418 -7.56048,-16.1499 -12.02932,-25.5735 -4.46884,-9.4237 -7.73428,-17.7664 -7.25653,-18.5393 0.50863,-0.8231 0.23067,-1.0112 -0.67073,-0.4542 -0.84664,0.5232 -1.53935,0.3598 -1.53935,-0.3633 0,-0.7229 -2.02577,-5.7084 -4.50172,-11.0787 -7.95928,-17.2633 -25.15135,-56.3443 -25.40148,-57.7427 -0.13333,-0.745 -1.19555,-3.1546 -2.36063,-5.3546 -6.63476,-12.5284 -45.77186,-109.5533 -64.00166,-158.6666 -2.17758,-5.8667 -5.39083,-14.5028 -7.14058,-19.1915 -1.74973,-4.6887 -2.89543,-8.9873 -2.54599,-9.5528 0.34943,-0.5653 0.14401,-1.2292 -0.4565,-1.4752 -1.3855,-0.5675 -7.82666,-18.4069 -24.23224,-67.1139 -23.95482,-71.12 -34.66169,-106.1014 -59.99034,-196 -13.37201,-47.461 -44.753347,-179.0054 -47.25844,-198.0982 -0.23346,-1.7792 -0.772546,-4.1351 -1.197967,-5.2351 -0.858385,-2.2195 -8.910092,-42.3567 -9.762777,-48.6667 -0.297288,-2.2 -2.001496,-11.5 -3.787127,-20.6666 -10.11316,-51.9167 -24.464539,-144.6044 -31.999387,-206.6667 -40.12899,-330.5304 -32.386221,-668.3769 22.734659,-992 3.30997,-19.4333 7.479098,-42.8333 9.264728,-52 1.785631,-9.1666 3.488225,-18.4666 3.783541,-20.6666 0.799955,-5.9594 8.927788,-46.3539 9.792275,-48.6667 0.411171,-1.1 0.938595,-3.4559 1.172055,-5.2351 2.505093,-19.0928 33.88643,-150.6372 47.25844,-198.0982 25.32865,-89.8986 36.03552,-124.88 59.99034,-196 16.40558,-48.707 22.84674,-66.5464 24.23224,-67.1139 0.60051,-0.246 0.80593,-0.9099 0.4565,-1.4752 -0.34944,-0.5655 0.79626,-4.8641 2.54599,-9.5528 1.74975,-4.6887 4.963,-13.3248 7.14058,-19.1915 18.2298,-49.1133 57.3669,-146.1382 64.00166,-158.6666 1.16508,-2.2 2.22735,-4.6096 2.36063,-5.3546 0.25013,-1.3984 17.4422,-40.4794 25.40148,-57.7427 2.47595,-5.3703 4.50172,-10.3558 4.50172,-11.0787 0,-0.7231 0.69271,-0.8865 1.53935,-0.3633 0.9014,0.557 1.17936,0.3689 0.67073,-0.4542 -0.47775,-0.7729 2.78769,-9.1156 7.25653,-18.5393 4.46884,-9.4236 9.88203,-20.9317 12.02932,-25.5735 6.72836,-14.5446 51.2988,-103.1438 56.35333,-112.0218 2.64958,-4.6538 4.8174,-8.7855 4.8174,-9.1815 0,-1.9476 47.59766,-88.1592 65.34515,-118.3571 6.03379,-10.2666 12.50021,-21.3666 14.36983,-24.6666 6.92335,-12.2203 14.00691,-23.3619 15.45751,-24.313 0.82179,-0.5388 1.05064,-0.9888 0.50855,-1 -1.10708,-0.023 2.61268,-6.2241 27.20528,-45.3537 9.44832,-15.0333 17.91411,-28.5044 18.81288,-29.9357 20.75664,-33.0551 62.51141,-95.3976 63.89383,-95.3976 0.5905,0 1.07364,-0.642 1.07364,-1.4268 0,-2.0826 33.14739,-49.585 36.68582,-52.5732 0.86833,-0.7334 1.66368,-1.9334 1.76741,-2.6667 0.37014,-2.6165 29.51459,-42 31.08071,-42 0.62299,0 0.98272,-0.4573 0.79939,-1.0164 -0.616,-1.8781 33.97216,-46.9521 35.36764,-46.0897 0.75774,0.4682 0.98206,0.2113 0.49849,-0.5711 -1.49276,-2.4153 83.46784,-109.0978 85.7573,-107.6829 0.59151,0.3656 0.99323,-0.099 0.8927,-1.0317 -0.10054,-0.9331 2.5172,-4.916 5.8172,-8.8509 12.21198,-14.5617 32.42289,-38.1934 35.42756,-41.424 1.70516,-1.8333 7.0962,-7.9787 11.98008,-13.6565 4.88388,-5.6778 9.50781,-9.9351 10.27541,-9.4607 0.79867,0.4937 1.0004,0.2231 0.47163,-0.6325 -0.82468,-1.3343 4.27916,-7.6068 18.64713,-22.9169 2.40872,-2.5667 7.26371,-7.9441 10.78884,-11.9499 8.83133,-10.0354 25.22698,-27.8124 50.46504,-54.7168 9.05361,-9.6514 115.38396,-116.0075 127.94426,-127.9753 19.7463,-18.8148 59.679,-55.5387 64.115,-58.9631 2.1368,-1.6494 4.485,-3.7391 5.2184,-4.6437 0.7333,-0.9046 8.5135,-7.9342 17.2892,-15.6212 13.2843,-11.6364 16.2981,-13.7103 18,-12.3866 1.7448,1.3571 1.8017,1.279 0.3883,-0.5336 -1.6188,-2.0761 4.6114,-7.8596 46.3225,-43.0008 23.0198,-19.3939 26.8119,-22.2766 28.1871,-21.4267 0.9387,0.5801 1.2015,0.3858 0.6609,-0.4888 -0.5244,-0.8486 8.1152,-8.7435 20.794,-19.0016 11.9302,-9.6523 23.432,-18.971 25.5596,-20.7082 2.1275,-1.7372 4.3924,-2.8346 5.033,-2.4387 0.6406,0.3959 0.9999,0.1109 0.7984,-0.6332 -0.6243,-2.3055 47.238,-39.0277 128.1894,-98.3528 4.7057,-3.4486 9.3557,-6.2701 10.3333,-6.2701 0.9777,0 1.4951,-0.2826 1.1497,-0.6279 -1.1058,-1.1059 21.0416,-16.1598 22.5299,-15.3138 0.7872,0.4475 0.9928,0.3289 0.4568,-0.2635 -0.5359,-0.5924 4.5641,-4.8585 11.3333,-9.4802 6.7694,-4.6216 14.8968,-10.3331 18.0612,-12.6921 3.1643,-2.3591 6.6143,-4.2892 7.6667,-4.2892 1.0523,0 1.6316,-0.2818 1.2872,-0.6262 -0.5781,-0.5781 20.9671,-15.7192 35.5289,-24.9684 3.4299,-2.1785 20.2299,-13.0222 37.3334,-24.097 17.1034,-11.0748 34.9972,-22.5272 39.7638,-25.4497 49.85,-30.5638 64.355,-39.019 65.6084,-38.2442 0.8087,0.4997 1.1098,0.3252 0.6691,-0.3878 -0.7607,-1.2308 14.8481,-11.1156 17.5524,-11.1156 0.7047,0 1.4812,-0.4738 1.7257,-1.0528 1.293,-3.0632 120.9371,-68.9955 163.1111,-89.8858 5.1333,-2.5427 18.9333,-9.4558 30.6667,-15.3624 52.2021,-26.2788 139.6321,-67.3283 146.2865,-68.6834 0.9424,-0.1919 2.0135,-0.7015 2.3801,-1.1324 1.6916,-1.9878 111.8201,-47.7759 144,-59.8707 5.5,-2.0672 18.1,-6.8705 28,-10.6741 9.9,-3.8035 23.1,-8.7152 29.3333,-10.9149 6.2334,-2.1997 18.8334,-6.7114 28,-10.026 43.7932,-15.8354 125.4163,-42.5759 166.6667,-54.6017 6.2333,-1.8172 18.2333,-5.3248 26.6667,-7.7945 15.1433,-4.4349 43.9968,-12.5259 67.3333,-18.8816 17.0876,-4.6537 86.1019,-21.9637 89.3123,-22.401 1.4782,-0.2013 3.5877,-0.7338 4.6877,-1.1833 1.1,-0.4495 10.4,-2.6998 20.6667,-5.0008 10.2666,-2.301 23.7666,-5.3366 30,-6.7459 51.3424,-11.6078 190.8962,-37.9492 195.6234,-36.9247 0.5738,0.1243 1.9432,-0.1436 3.0432,-0.5955 2.4174,-0.993 65.2848,-10.1837 101.3334,-14.8141 274.6218,-35.275 554.0418,-37.3029 829.9999,-6.024 50.8098,5.7592 146.8028,18.9771 151.3334,20.8381 1.1,0.4519 2.4694,0.7198 3.0432,0.5955 4.7272,-1.0245 144.281,25.3169 195.6234,36.9247 6.2334,1.4093 19.7334,4.4449 30,6.7459 10.2667,2.301 19.5667,4.5513 20.6667,5.0008 1.1,0.4495 3.2095,0.982 4.6877,1.1833 3.2104,0.4373 72.2247,17.7473 89.3123,22.401 23.3365,6.3557 52.19,14.4467 67.3333,18.8816 8.4334,2.4697 20.4334,5.9773 26.6667,7.7945 41.2504,12.0258 122.8735,38.7663 166.6667,54.6017 9.1666,3.3146 21.7666,7.8263 28,10.026 6.2333,2.1997 19.4333,7.1114 29.3333,10.9149 9.9,3.8036 22.5,8.6069 28,10.6741 32.1799,12.0948 142.3084,57.8829 144,59.8707 0.3666,0.4309 1.4377,0.9405 2.3801,1.1324 6.6544,1.3551 94.0844,42.4046 146.2865,68.6834 11.7334,5.9066 25.5334,12.8197 30.6667,15.3624 42.174,20.8903 161.8181,86.8226 163.1111,89.8858 0.2445,0.579 1.021,1.0528 1.7257,1.0528 2.7043,0 18.3131,9.8848 17.5524,11.1156 -0.4407,0.713 -0.1396,0.8875 0.6691,0.3878 1.252,-0.7739 16.2713,7.9818 65.6084,38.247 32.1006,19.6917 81.519,52.2861 80.6269,53.1783 -0.3448,0.3448 0.1933,0.6269 1.1957,0.6269 2.8078,0 31.312,19.617 30.4904,20.9838 -0.3988,0.6633 -0.092,0.8143 0.6834,0.3355 0.7746,-0.4787 4.4878,1.3786 8.2514,4.1273 3.7638,2.7488 17.2664,12.1961 30.006,20.994 12.7396,8.7979 22.9455,16.3479 22.6799,16.7777 -0.2657,0.4299 0.2904,0.7817 1.2357,0.7817 0.9455,0 5.5691,2.8215 10.2748,6.2701 80.9514,59.3251 128.8136,96.0473 128.1894,98.3528 -0.2015,0.7442 0.1578,1.0291 0.7984,0.6332 0.6406,-0.3959 2.9054,0.7015 5.033,2.4387 2.1276,1.7372 13.6294,11.0559 25.5596,20.7082 12.6788,10.2581 21.3184,18.153 20.7939,19.0016 -0.5456,0.8829 -0.2765,1.0682 0.6868,0.4728 0.9591,-0.5927 6.1593,2.8773 13.1791,8.794 6.3773,5.3752 13.1072,11.0456 14.9553,12.6011 29.9987,25.2475 75.97,65.3174 80.6963,70.3369 1.468,1.5593 4.4162,4.1986 6.5516,5.8653 4.5126,3.5223 45.0661,40.841 64.1124,58.9984 12.8461,12.2467 119.0518,118.4649 127.9564,127.9713 26.8882,28.7061 41.6832,44.7514 50.4529,54.7168 3.5252,4.0058 8.3801,9.3832 10.7888,11.9499 14.368,15.3101 19.4719,21.5826 18.6472,22.9169 -0.5377,0.87 -0.3259,1.1254 0.5068,0.6108 1.1715,-0.724 45.5201,48.7025 52.1263,58.0948 0.9964,1.4167 4.1424,5.0812 6.9909,8.1433 2.8487,3.0621 4.8903,6.3487 4.5369,7.3034 -0.3533,0.9548 -0.1,1.4006 0.5634,0.9908 1.2594,-0.7785 36.097,41.0067 36.097,43.2958 0,0.721 0.4816,1.3108 1.0703,1.3108 2.6033,0 49.8799,61.1294 48.7235,63.0004 -0.4804,0.7774 -0.2451,1.0239 0.5237,0.5488 0.7832,-0.4841 7.5661,7.4752 15.4485,18.1272 7.7288,10.4447 15.4432,20.7711 17.1432,22.9475 1.6999,2.1765 2.9408,4.4265 2.7575,5 -0.1834,0.5736 0.1929,1.0428 0.8361,1.0428 1.4101,0 30.8936,40.1629 30.7227,41.8509 -0.067,0.6514 0.4586,1.5514 1.1657,2 3.0484,1.9342 37.6088,50.9951 37.6088,53.3884 0,0.7851 0.4832,1.4274 1.0736,1.4274 1.3856,0 41.7988,60.3337 63.9,95.3976 34.6292,54.9394 47.1564,75.269 46.3817,75.269 -0.3644,0 0.3423,1.1736 1.5706,2.6082 6.5462,7.6454 93.7408,161.8194 93.7408,165.7489 0,0.396 2.1673,4.5277 4.8162,9.1815 5.5156,9.69 46.6178,91.5001 57.5066,114.4614 19.1469,40.3758 49.4905,107.6385 50.2245,111.3333 0.1456,0.7334 1.2181,3.1334 2.3832,5.3334 4.4491,8.4012 37.3541,88.5397 50.6409,123.3333 18.339,48.0236 23.9979,63.9916 22.6879,64.0204 -0.5093,0.013 -0.2849,0.4612 0.4985,1 1.7471,1.2015 7.6228,17.392 24.5496,67.6463 24.0808,71.494 33.2706,101.513 60.0012,196 12.3371,43.6088 48.6894,196.0202 47.7952,200.3869 -0.1066,0.5205 0.1584,1.8464 0.5891,2.9464 0.9513,2.4303 9.1716,43.3237 9.6487,48 0.187,1.8333 0.6697,4.2333 1.0725,5.3333 1.0355,2.8279 10.5887,57.3004 16.8363,96 57.7561,357.7678 57.7561,732.8989 0,1090.6667 -6.2476,38.6996 -15.8008,93.1721 -16.8363,96 -0.4028,1.1 -0.8855,3.5 -1.0725,5.3333 -0.4555,4.464 -8.6664,45.466 -9.6123,48 -0.4107,1.1 -0.9772,3.7821 -1.2589,5.9603 -2.2602,17.4733 -34.8368,153.807 -47.1618,197.373 -26.7306,94.487 -35.9204,124.506 -60.0012,196 -16.9268,50.2543 -22.8025,66.4448 -24.5496,67.6463 -0.7834,0.5388 -1.0078,0.9888 -0.4985,1 1.31,0.029 -4.3489,15.9968 -22.6879,64.0204 -13.2868,34.7936 -46.1918,114.9321 -50.6409,123.3333 -1.1651,2.2 -2.2376,4.6 -2.3832,5.3334 -0.734,3.6948 -31.0776,70.9575 -50.2245,111.3333 -10.8888,22.9613 -51.991,104.7714 -57.5066,114.4614 -2.6489,4.6538 -4.8162,8.7855 -4.8162,9.1815 0,3.8813 -87.235,158.1508 -93.6982,165.6992 -1.2517,1.4619 -1.9776,2.6579 -1.6132,2.6579 0.7747,0 -11.7525,20.3296 -46.3817,75.269 -22.1012,35.0639 -62.5144,95.3976 -63.9,95.3976 -0.5904,0 -1.0736,0.6423 -1.0736,1.4274 0,2.3933 -34.5604,51.4542 -37.6088,53.3884 -0.7071,0.4486 -1.1612,1.252 -1.0091,1.7853 0.3944,1.3831 -29.4696,42.0656 -30.8793,42.0656 -0.6432,0 -1.0195,0.4692 -0.8361,1.0428 0.1833,0.5735 -1.0576,2.8235 -2.7575,5 -1.7,2.1764 -9.4144,12.5028 -17.1432,22.9475 -7.8824,10.652 -14.6653,18.6113 -15.4485,18.1272 -0.7731,-0.4778 -1.0037,-0.2279 -0.5169,0.5597 1.5709,2.5419 -83.4935,109.082 -85.9042,107.5921 -0.6596,-0.4077 -0.9101,0.04 -0.5568,0.9948 0.3534,0.9547 -1.6882,4.2412 -4.5369,7.3034 -2.8485,3.0621 -5.9945,6.7266 -6.9909,8.1433 -6.6062,9.3923 -50.9548,58.8188 -52.1263,58.0948 -0.8327,-0.5145 -1.0445,-0.2592 -0.5068,0.6108 0.8247,1.3344 -4.2792,7.6068 -18.6472,22.9169 -2.4087,2.5667 -7.2636,7.9442 -10.7888,11.9499 -8.7697,9.9653 -23.5647,26.0107 -50.4529,54.7168 -8.9046,9.5064 -115.1103,115.7245 -127.9564,127.9713 -19.0463,18.1575 -59.5998,55.4762 -64.1124,58.9984 -2.1354,1.6667 -5.0836,4.306 -6.5516,5.8652 -4.7263,5.0196 -50.6976,45.0895 -80.6963,70.3371 -1.8481,1.5553 -8.578,7.2259 -14.9553,12.6009 -7.0198,5.9168 -12.22,9.3867 -13.1791,8.794 -0.9633,-0.5953 -1.2324,-0.41 -0.6868,0.473 0.5245,0.8485 -8.1151,8.7434 -20.7939,19.0014 -11.9302,9.6524 -23.432,18.9711 -25.5596,20.7083 -2.1276,1.7372 -4.3924,2.8347 -5.033,2.4387 -0.6406,-0.3959 -0.9999,-0.1107 -0.7984,0.6332 0.6242,2.3056 -47.238,39.0277 -128.1894,98.3529 -4.7057,3.4485 -9.3293,6.27 -10.2748,6.27 -0.9453,0 -1.5014,0.3517 -1.2357,0.7816 0.2656,0.43 -9.9403,7.98 -22.6799,16.7778 -12.7396,8.797896 -26.2422,18.245096 -30.006,20.993896 -3.7636,2.7488 -7.4768,4.6061 -8.2514,4.1273 -0.7747,-0.4786 -1.0822,-0.3277 -0.6834,0.3356 0.8216,1.3668 -27.6826,20.9838 -30.4904,20.9838 -1.0024,0 -1.5405,0.2821 -1.1957,0.6269 0.8921,0.8921 -48.5263,33.4865 -80.6269,53.1783001 -49.3371,30.2651999 -64.3564,39.0208999 -65.6084,38.2469999 -0.8087,-0.4997 -1.1098,-0.3253 -0.6691,0.3878 0.7607,1.2308 -14.8481,11.1156 -17.5524,11.1156 -0.7047,0 -1.4812,0.4737 -1.7257,1.0529 -1.2923,3.0615 -120.7818,68.910304 -163.1111,89.888004 -33.106,16.4068 -61.812,30.7533 -64.6667,32.3188 -20.5857,11.2893 -178.4197,82.0992 -187.2958,84.0276 -0.7539,0.1637 -4.0727,1.5063 -7.3749,2.9833 -16.4956,7.3786 -94.48,37.7734 -121.3292,47.2888 -6.2334,2.2091 -18.8334,6.7286 -28,10.0431 -43.7932,15.8353 -125.4163,42.5759 -166.6667,54.6017 -6.2333,1.8172 -18.2333,5.3247 -26.6667,7.7946 -15.1433,4.4348 -43.9968,12.5258 -67.3333,18.8814 -17.0876,4.6539 -86.1019,21.9638 -89.3123,22.4011 -1.4782,0.2013 -3.5877,0.7339 -4.6877,1.1833 -1.1,0.4495 -10.4,2.6998 -20.6667,5.0008 -10.2666,2.301 -23.7666,5.3366 -30,6.7459 -51.3424,11.6079 -190.8962,37.9492 -195.6234,36.9247 -0.5738,-0.124 -1.9432,0.1458 -3.0432,0.6004 -2.8358,1.1718 -78.4987,12.0156 -117.3334,16.8158 -121.1793,14.9787 -229.5138,22.6279 -360,25.4188 -66.4173,1.4207 -64.6983,1.4214 -136.1001,-0.055 z m 600.4025,-1414.5672 c 4.7208,-1.4581 11.2104,-4.4154 14.4212,-6.5718 3.2108,-2.1564 6.4043,-3.5708 7.0964,-3.143 0.6923,0.4279 0.9068,0.2086 0.4767,-0.4874 -0.4301,-0.696 1.8101,-3.82 4.9785,-6.9423 6.468,-6.374 13.1364,-18.8629 15.416,-28.8719 1.1427,-5.0169 1.1147,-16.5226 -0.1133,-46.5122 -1.808,-44.1615 -1.0204,-190.4296 1.3363,-248.1536 5.9781,-146.4303 14.7694,-257.8848 25.5041,-323.3333 9.46,-57.677 36.0243,-146.9435 67.6944,-227.4803 11.5375,-29.3396 18.5479,-45.8377 20.4532,-48.1335 0.7849,-0.9457 1.0957,-1.7196 0.6907,-1.7196 -0.7082,0 8.3866,-21.0329 23.0616,-53.3333 10.078,-22.182 48.5372,-98.2264 62.9788,-124.5264 6.8033,-12.3896 15.0457,-27.4971 18.3165,-33.5721 3.2709,-6.0752 6.5136,-10.6956 7.206,-10.2676 0.6925,0.428 0.8601,0.1333 0.3725,-0.6564 -1.1884,-1.9227 70.4406,-124.8884 74.0526,-127.1266 0.724,-0.4486 1.1152,-1.1293 0.8692,-1.5125 -0.246,-0.3832 5.2528,-9.8808 12.2194,-21.1056 6.9667,-11.2249 15.1334,-24.4776 18.1482,-29.4505 3.0148,-4.9728 5.9609,-8.6083 6.547,-8.0786 0.5862,0.5296 0.6883,0.3007 0.2271,-0.5086 -0.8176,-1.4348 6.1408,-13.7191 8.6917,-15.3442 0.7043,-0.4486 1.0792,-1.058 0.8332,-1.3541 -0.246,-0.2961 13.899,-23.6291 31.4331,-51.8509 42.482,-68.3763 45.7588,-73.674 64.7264,-104.6459 8.9821,-14.6667 17.4701,-28.2924 18.8623,-30.2793 1.392,-1.987 2.531,-3.949 2.531,-4.3599 0,-0.4109 1.61,-3.2852 3.5779,-6.3873 1.9677,-3.102 5.4833,-8.9402 7.8124,-12.9735 2.3291,-4.0333 10.0925,-17.2333 17.2521,-29.3333 7.1598,-12.1 14.5371,-24.7 16.3943,-28 1.8572,-3.3 7.1127,-12.6 11.6788,-20.6667 4.5663,-8.0667 9.9475,-17.6667 11.9583,-21.3333 2.0106,-3.6667 4.7217,-8.4667 6.0245,-10.6667 3.4247,-5.7837 19.4636,-36.1309 35.0116,-66.2455 4.0451,-7.8349 7.6152,-13.9849 7.9336,-13.6666 0.3183,0.3184 0.5964,-0.1712 0.6179,-1.0879 0.021,-0.9167 4.3872,-10.6667 9.7014,-21.6667 122.17,-252.8795 161.4104,-464.247 131.9354,-710.6666 -11.609,-97.0533 -35.3167,-196.1628 -68.5728,-286.6667 -5.3894,-14.6666 -9.9923,-27.5666 -10.2287,-28.6666 -0.2365,-1.1 -0.7645,-2.3 -1.1733,-2.6667 -1.0482,-0.94 -13.9234,-32.3805 -13.9234,-34 0,-0.7333 -0.4781,-1.9333 -1.0625,-2.6667 -1.2657,-1.5882 -26.3119,-55.4074 -26.6815,-57.3333 -0.1408,-0.7333 -0.6122,-1.6333 -1.0477,-2 -1.2684,-1.068 -14.6172,-28 -13.878,-28 0.3683,0 -0.2865,-1.05 -1.4553,-2.3333 -1.1688,-1.2834 -6.4867,-10.4334 -11.8175,-20.3334 -10.268,-19.0689 -25.2029,-44.4182 -38.4731,-65.3013 -4.4158,-6.9491 -8.0288,-13.3991 -8.0288,-14.3333 0,-0.9343 -0.3013,-1.3974 -0.6697,-1.0291 -1.0912,1.0913 -21.4892,-30.36 -20.6113,-31.7804 0.4422,-0.7157 0.2362,-0.9503 -0.4579,-0.5213 -0.694,0.429 -3.3368,-2.2955 -5.8727,-6.0544 -19.7374,-29.2567 -73.1594,-96.1186 -98.3584,-123.1035 -4.172,-4.4677 -12.017,-12.8677 -17.4332,-18.6667 -14.9057,-15.9589 -37.9209,-39.3864 -45.0961,-45.9038 -3.5143,-3.1922 -13.2896,-12.2487 -21.7229,-20.1256 -8.4334,-7.8768 -21.3334,-19.5247 -28.6667,-25.8839 -7.3333,-6.3593 -13.5333,-12.1027 -13.7777,-12.7628 -0.2446,-0.6603 -1.1446,-1.2175 -2,-1.2383 -0.8556,-0.021 -4.5556,-2.714 -8.2223,-5.9849 -6.7368,-6.0096 -10.592,-9.2384 -16.6667,-13.9585 -1.8333,-1.4246 -5.1333,-4.0011 -7.3333,-5.7255 -2.2,-1.7245 -10.6,-8.1474 -18.6667,-14.2733 -8.0666,-6.1257 -14.8666,-11.6363 -15.111,-12.2456 -0.2446,-0.6092 -0.9619,-1.1077 -1.5942,-1.1077 -0.6324,0 -7.0324,-4.2024 -14.2222,-9.3386 -23.7712,-16.9814 -72.6675,-49.0517 -85.4996,-56.078 -3.4318,-1.879 -11.9892,-6.7741 -19.0166,-10.8778 -30.156,-17.6103 -78.1782,-42.3226 -112.1557,-57.7152 -7.8463,-3.5547 -13.9036,-7.0494 -13.4607,-7.766 0.4555,-0.737 0.116,-0.8771 -0.7812,-0.3226 -2.0813,1.2864 -16.286,-4.6174 -15.228,-6.3292 0.448,-0.7249 0.1532,-0.9093 -0.6552,-0.4097 -0.8082,0.4996 -9.451,-2.3387 -19.206,-6.3072 -112.8658,-45.9164 -241.11,-76.8661 -365.0696,-88.104 -75.6528,-6.8585 -158.8187,-6.8512 -233.3333,0.021 -102.2825,9.4327 -201.7166,30.5511 -296,62.8662 -15.7666,5.4038 -29.2666,10.0037 -30,10.2218 -0.7333,0.2182 -3.1333,1.1451 -5.3333,2.0599 -2.2,0.9149 -8.5,3.3427 -14,5.3949 -30.8852,11.5244 -65.7409,26.8399 -106,46.5758 -17.6,8.628 -32.5329,15.7308 -33.1843,15.7842 -0.6513,0.053 -1.5513,0.6696 -2,1.3694 -0.4486,0.6998 -4.1157,2.9188 -8.149,4.931 -4.0334,2.0123 -10.6334,5.642 -14.6667,8.0662 -4.0333,2.424 -8.2333,4.6062 -9.3333,4.8494 -1.1,0.2432 -2.3082,0.8482 -2.6848,1.3443 -1.3238,1.7435 -46.0014,28.1801 -47.6486,28.1944 -0.9166,0.013 -1.3822,0.2989 -1.0346,0.6465 0.7166,0.7168 -10.7596,8.257 -12.5672,8.257 -0.6468,0 -1.3759,0.5214 -1.6204,1.1586 -0.2444,0.6374 -7.6444,5.916 -16.4444,11.7304 -16.4708,10.8828 -20.3199,13.6175 -51.8294,36.8228 -10.1728,7.4918 -19.1728,13.4215 -20,13.1771 -0.8272,-0.2445 -1.0936,-0.033 -0.5918,0.4676 0.5016,0.5017 -3.6984,4.5717 -9.3334,9.0446 -5.635,4.4728 -12.388,9.9624 -15.0066,12.199 -2.6188,2.2365 -6.2239,5.2665 -8.0115,6.7332 -1.7876,1.4666 -6.6696,5.5678 -10.8489,9.1136 -4.5654,3.8734 -8.2358,6.0533 -9.1946,5.4606 -0.947,-0.5853 -1.247,-0.4217 -0.7377,0.4023 0.4721,0.7637 -4.3827,6.1065 -10.7881,11.8728 -39.5291,35.5837 -81.1227,76.9731 -107.7802,107.2507 -14.1152,16.0321 -21.7372,24.9204 -28.4985,33.2333 -3.8771,4.7667 -8.0235,9.596 -9.2143,10.7317 -1.1908,1.1359 -2.765,3.0352 -3.4984,4.2208 -0.7333,1.1856 -7.3333,9.7672 -14.6666,19.0702 -76.6528,97.241 -142.8499,214.6089 -187.9918,333.3106 -70.0609,184.2275 -97.6416,385.8107 -78.626,574.6667 10.7622,106.8851 40.4823,223.6859 84.7635,333.1213 5.0209,12.4087 8.746,23.2328 8.2779,24.0533 -0.4682,0.8207 -0.3656,1.0527 0.2277,0.5159 0.5933,-0.5369 6.4288,11.1631 12.9677,26 6.539,14.8368 21.2208,45.8761 32.6264,68.9761 11.4058,23.1 20.7664,42.75 20.8016,43.6667 0.035,0.9167 0.352,1.3788 0.7039,1.0269 0.3519,-0.3518 6.1521,9.6982 12.8896,22.3334 17.8924,33.555 51.1389,91.8604 71.9543,126.188 4.0416,6.665 7.0377,12.1184 6.6581,12.1184 -0.3796,0 0.548,1.3289 2.0612,2.9532 1.5132,1.6242 2.4048,3.856 1.9815,4.9593 -0.4235,1.1035 -0.3334,1.5696 0.2002,1.0361 1.1807,-1.1808 5.9595,5.7752 5.0162,7.3015 -0.3682,0.5957 -0.1187,1.0832 0.553,1.0832 1.5171,0 11.3794,15.7977 11.3794,18.2276 0,0.9748 0.3153,1.4571 0.7008,1.0717 0.8394,-0.8396 9.4482,12.6958 9.4913,14.923 0.016,0.8554 0.5249,1.7554 1.1296,2 0.6047,0.2444 13.2935,19.9444 28.1972,43.7777 14.9039,23.8333 30.0156,47.9833 33.5817,53.6667 3.5662,5.6833 6.1775,10.3333 5.8028,10.3333 -0.3746,0 0.2562,1.05 1.4018,2.3333 1.1456,1.2834 3.4213,4.4334 5.0572,7 14.0029,21.9712 21.3042,34.1571 21.3042,35.5566 0,0.9126 0.3596,1.4373 0.799,1.1657 0.8434,-0.5213 24.6809,37.1067 24.3508,38.4383 -0.1054,0.4268 1.2922,2.3778 3.1068,4.3357 1.8145,1.9579 3.299,4.0421 3.299,4.6316 0,0.5895 1.7355,3.6519 3.8567,6.8053 11.8224,17.5756 69.4079,114.7222 88.3623,149.0668 5.0589,9.1667 9.7604,17.5667 10.4474,18.6667 5.4888,8.7868 33.133,61.3739 49.7648,94.6667 28.7374,57.5252 54.4055,114.8392 69.5662,155.3333 1.6473,4.4 5.7908,15.4293 9.2077,24.5095 21.8156,57.9732 43.092,128.6324 53.3213,177.081 20.7535,98.2936 37.4448,386.1639 33.8852,584.4095 -1.0005,55.728 -0.593,61.0454 5.6232,73.3865 7.4866,14.8625 20.4788,26.3119 35.7735,31.5252 l 8.8584,3.0195 503.5262,0.035 c 498.8247,0.035 503.6063,0.013 512.1095,-2.6166 z m -938.9822,-159.6802 c -0.02,-57.1432 -3.1109,-171.4704 -6.1452,-227.3354 l -0.8509,-15.6666 h 433.037 433.0369 l -0.9052,24.3333 c -3.1068,83.5237 -3.6504,106.7044 -4.1501,177 l -0.5545,78 -426.7274,0.3353 -426.7274,0.3355 -0.013,-37.0021 z M 2987.4365,-1439 c -0.3998,-3.1166 -1.359,-13.4666 -2.1318,-23 -3.4898,-43.0588 -9.9958,-98.2863 -15.393,-130.6666 -3.3548,-20.1276 -11.8911,-60.0144 -14.072,-65.7535 -0.6452,-1.6977 -1.1731,-3.6493 -1.1731,-4.3369 0,-0.7757 179.8983,-1.246 474,-1.2392 260.7,0 474,0.2671 474,0.5801 0,0.3131 -1.7327,7.3599 -3.8503,15.6594 -5.8561,22.9517 -12.1367,54.445 -14.31,71.7568 -0.3221,2.5666 -1.7515,13.6666 -3.1763,24.6666 -3.3764,26.0683 -6.05,51.5125 -8.6165,82 -1.142,13.5667 -2.4065,27.2167 -2.81,30.3333 l -0.7336,5.6667 h -440.5033 -440.5033 z m -72.6163,-353.3229 c -0.6169,-1.6557 -2.4883,-6.9104 -4.1585,-11.677 -10.427,-29.7563 -40.6651,-103.4558 -56.4832,-137.6667 -2.6279,-5.6833 -4.3431,-10.3425 -3.8116,-10.3537 0.5316,-0.013 0.3664,-0.4612 -0.367,-1 -0.7333,-0.5388 -2.3413,-3.0796 -3.5733,-5.6463 -7.3211,-15.252 -46.7769,-94.0964 -50.7099,-101.3333 -22.2416,-40.9258 -31.833,-58.3758 -37.7433,-68.6667 -3.7904,-6.6 -8.5551,-15 -10.588,-18.6667 -6.1616,-11.1129 -35.0609,-60.0324 -48.3396,-81.8272 -6.8675,-11.2716 -12.6121,-21.1026 -12.766,-21.8465 -0.154,-0.744 -1.6299,-2.8593 -3.2799,-4.7008 -1.65,-1.8416 -3,-3.8849 -3,-4.5408 0,-0.656 -1.148,-2.8184 -2.5509,-4.8053 -5.346,-7.5708 -44.2436,-70.9035 -44.0701,-71.7544 0.1,-0.4914 -0.3898,-1.2606 -1.0887,-1.7092 -0.6989,-0.4487 -10.1489,-14.9158 -21.0003,-32.1491 -30.7712,-48.8692 -32.696,-52 -31.9712,-52 0.3747,0 -0.2561,-1.05 -1.4017,-2.3333 -2.4787,-2.7767 -3.0188,-3.618 -25.8945,-40.3334 -30.4531,-48.8768 -38.6967,-62.9093 -37.8047,-64.3525 0.4735,-0.7661 0.2917,-1.0411 -0.4039,-0.6112 -1.6254,1.0045 -44.6176,-71.1503 -65.703,-110.2711 -2.796,-5.1874 -6.3214,-11.5318 -7.834,-14.0985 -9.155,-15.5339 -46.0851,-88.3359 -59.5195,-117.3333 -58.4503,-126.161 -94.1743,-245.8883 -107.4163,-360 -5.3222,-45.8643 -6.009,-59.7735 -5.9257,-120 0.1013,-73.7784 2.8624,-110.3039 13.4021,-177.3333 12.5147,-79.5887 34.9926,-164.6279 61.1472,-231.3334 2.0128,-5.1333 5.7772,-14.7333 8.3656,-21.3333 14.316,-36.5045 37.7136,-86.3829 56.7195,-120.9137 14.2693,-25.925 31.4125,-54.8027 33.1831,-55.897 0.7305,-0.4514 1.3333,-1.3537 1.3397,-2.005 0.016,-1.6704 13.1784,-22.8259 23.5493,-37.851 4.8087,-6.9666 10.1676,-14.7666 11.9087,-17.3333 11.2216,-16.5427 46.7071,-62.9356 60.1009,-78.5747 82.8948,-96.7904 163.2842,-167.8404 263.5351,-232.9185 27.036,-17.5505 66.6184,-40.7517 84,-49.2366 2.9333,-1.4319 5.7741,-3.2035 6.3129,-3.9368 0.6531,-0.889 0.9932,-0.889 1.0204,0 0.023,0.7406 0.4763,0.6622 1.0204,-0.1764 1.4954,-2.3047 70.9796,-35.8258 70.9796,-34.2424 0,0.4098 0.8234,0.063 1.8298,-0.7732 1.0062,-0.8352 8.3562,-4.244 16.3333,-7.5752 142.7941,-59.631 293.8695,-89.8995 448.703,-89.8995 145.3967,0 287.7242,27.0396 424.4672,80.6411 33.672,13.1989 80.52,34.3332 82.2963,37.1258 0.5479,0.8615 1.0055,1.1122 1.0167,0.5568 0.025,-1.2778 34.4996,15.8734 37.827,18.8196 1.3603,1.2046 2.7138,2.0331 3.0078,1.8414 0.4852,-0.3166 12.9986,5.9458 17.8522,8.9341 2.0583,1.2672 42.3334,25.0305 46.4635,27.4145 17.7865,10.2671 69.5417,46.2461 68.6349,47.7135 -0.4641,0.7509 -0.2474,0.9966 0.4814,0.5462 4.5953,-2.84 123.5826,96.3688 120.8616,100.7716 -0.4694,0.7594 -0.2812,1.0271 0.418,0.595 1.9101,-1.1806 54.2274,51.9485 53.0426,53.8657 -0.5722,0.9259 -0.4137,1.2363 0.3804,0.7455 1.6924,-1.0459 6.0983,3.604 4.7206,4.9818 -0.5516,0.5516 -0.3242,0.803 0.5054,0.5584 1.4202,-0.4184 18.7104,18.2336 30.4916,32.8931 2.9334,3.65 9.5694,11.7423 14.7468,17.9828 19.9156,24.0052 68.2199,91.3064 68.3264,95.1973 0.017,0.6514 0.6108,1.5514 1.3178,2 2.0709,1.3142 19.5065,29.464 35.1909,56.8158 13.4427,23.4424 44.9013,84.7821 45.5825,88.8793 0.1635,0.9831 1.1048,3.2593 2.0918,5.0585 3.2688,5.9584 13.4789,29.758 22.0486,51.3955 45.5083,114.9015 71.3054,231.2244 79.3939,358 2.1345,33.4553 1.7868,108.2697 -0.6413,138 -7.809,95.6117 -26.1496,178.9217 -61.0548,277.3333 -4.4218,12.4667 -8.4063,22.9667 -8.8544,23.3333 -0.4482,0.3667 -0.973,1.6378 -1.1663,2.8246 -0.4665,2.8637 -12.378,33.0606 -17.0312,43.1754 -2.0241,4.4 -3.8192,8.6223 -3.9891,9.3828 -1.1104,4.9696 -30.2376,67.7698 -45.121,97.2839 -26.4882,52.526 -65.3602,123.3333 -67.7079,123.3333 -0.7096,0 -0.9915,0.4831 -0.6265,1.0736 1.0124,1.6382 -15.8476,29.7926 -17.1383,28.6192 -0.6208,-0.5644 -0.7584,-0.3753 -0.3059,0.4202 0.8687,1.5266 -16.8676,32.9704 -17.9736,31.8644 -0.3541,-0.3543 -0.644,0.1333 -0.644,1.0825 0,1.9648 -18.8044,33.1749 -20.74,34.4225 -0.696,0.4487 -1.2238,1.3487 -1.173,2 0.051,0.6514 -6.3479,11.6236 -14.2195,24.3828 -7.8715,12.7592 -15.9128,25.8935 -17.8696,29.1874 -1.9567,3.2937 -4.258,6.4214 -5.1139,6.9505 -0.8558,0.5289 -1.4298,1.3908 -1.2756,1.9153 0.4234,1.4388 -23.1624,39.2986 -24.1152,38.7098 -0.4545,-0.281 -0.8265,0.2678 -0.8265,1.2197 0,0.9519 -4.45,8.7561 -9.8888,17.3431 -10.6225,16.7706 -10.9316,17.275 -15.778,25.7548 -1.7643,3.0869 -3.8036,5.2441 -4.532,4.794 -0.7284,-0.4502 -0.9612,-0.231 -0.5175,0.487 0.4438,0.718 -2.721,6.9608 -7.0329,13.8727 -36.4911,58.4956 -99.5815,163.4057 -113.8004,189.2339 -6.8585,12.4582 -8.4213,14.6921 -9.5577,13.6618 -0.6039,-0.5473 -0.7004,-0.3002 -0.2144,0.5492 0.4858,0.8494 -6.2407,14.3494 -14.948,30 -8.7072,15.6506 -20.3088,37.0055 -25.7811,47.4554 -5.4723,10.4498 -10.2896,18.6598 -10.7049,18.2444 -0.4155,-0.4154 -0.6654,0.035 -0.5554,1.0002 0.1094,0.9656 -6.7496,15.5556 -15.2437,32.4223 -8.494,16.8667 -19.8587,40.2667 -25.2549,52 -5.3962,11.7333 -10.6895,22.3833 -11.763,23.6667 -1.0734,1.2833 -1.5662,2.3333 -1.0952,2.3333 0.4711,0 -0.6924,3.45 -2.5856,7.6667 -11.3318,25.2393 -28.8462,67.6544 -38.6652,93.6362 -6.2418,16.5168 -12.1468,32.1304 -13.1222,34.6971 l -1.7735,4.6667 h -79.1483 -79.1484 l -0.6666,-412 c -0.6526,-403.2682 -0.7212,-412.1272 -3.2399,-418 -12.0183,-28.0235 -39.2488,-44.2143 -67.3835,-40.065 -18.0486,2.6618 -34.4625,12.7014 -43.9197,26.8638 -3.2781,4.9089 -7.3059,14.1446 -10.8332,24.841 -4.8677,14.7607 -16.1776,44.668 -21.5565,57.0031 -0.9536,2.1869 -7.2554,15.0933 -14.0038,28.6809 -21.0314,42.3454 -46.535,77.9775 -74.2986,103.8059 -2.8794,2.6787 -6.4555,6.0703 -7.947,7.5369 -5.6224,5.5291 -15.9148,12.5582 -17.2133,11.7556 -0.7424,-0.4588 -0.9629,-0.2082 -0.4901,0.5568 1.1549,1.8687 -12.8728,10.8454 -28.4478,18.2044 -20.2722,9.5786 -44.4013,15.4967 -63.0965,15.4754 -18.8477,-0.021 -43.3384,-6.0482 -64.0842,-15.77 -12.2868,-5.7579 -33.458,-19.2178 -35.2422,-22.4059 -0.6325,-1.1304 -1.5365,-1.8515 -2.0089,-1.6024 -3.2551,1.7161 -54.9965,-53.8801 -55.2796,-59.3981 -0.033,-0.6514 -0.6253,-1.5514 -1.3152,-2 -3.8031,-2.4731 -23.848,-35.2611 -34.3267,-56.1491 -9.6044,-19.1451 -26.4865,-58.6667 -25.0604,-58.6667 0.4072,0 0.148,-0.75 -0.5758,-1.6666 -0.7239,-0.9167 -4.4663,-11.058 -8.3164,-22.5363 -5.9128,-17.6279 -8.0639,-22.2743 -13.8471,-29.9116 -18.5264,-24.4656 -49.5905,-31.9555 -77.5136,-18.6895 -15.4024,7.3176 -26.0575,19.0544 -32.4804,35.778 -2.0039,5.2178 -2.2419,40.0139 -2.8529,417.026 l -0.6667,411.3334 -80.3624,0.3437 -80.3624,0.3437 z m 288.7391,2.1046 c -0.491,-0.491 -0.8727,-126.9427 -0.8483,-281.0039 0.044,-278.4531 0.06,-280.0925 2.6595,-276.9721 1.4384,1.7264 2.2221,3.8264 1.7418,4.6666 -0.4802,0.8403 -0.3649,1.0655 0.2566,0.5007 1.3792,-1.254 11.475,8.3281 10.4768,9.9435 -0.3908,0.6322 -0.1562,0.9848 0.5214,0.7833 0.6778,-0.2016 6.2723,4.2085 12.4324,9.8003 6.1603,5.5916 14.5004,12.7222 18.5338,15.8458 4.0333,3.1235 8.0833,6.6132 9,7.7548 0.9166,1.1416 1.6758,1.5111 1.687,0.8208 0.013,-0.7052 0.4495,-0.6657 1,0.091 0.5388,0.7399 3.2255,2.8399 5.9706,4.6667 2.7449,1.8268 4.9949,3.7714 5,4.3214 0,0.55 0.759,1.0128 1.6757,1.0286 0.9167,0.016 5.8667,2.7514 11,6.0796 8.2205,5.3297 40.4367,22.01 44,22.7817 0.7333,0.1588 6.5276,2.1109 12.8763,4.3383 32.917,11.5481 57.647,15.2945 95.1237,14.4105 23.361,-0.5512 34.2926,-1.7083 52,-5.5045 30.6576,-6.5726 70.9196,-24.3862 99.2021,-43.891 13.8123,-9.5256 19.3419,-13.4474 20.1312,-14.2781 0.3667,-0.3859 4.5653,-3.9859 9.3303,-8 4.7649,-4.0141 15.7056,-14.2345 24.3126,-22.7121 l 15.6491,-15.4138 -0.3127,280.0804 -0.3126,280.0804 -226.1074,0.3372 c -124.3589,0.1855 -226.5089,-0.064 -226.9999,-0.5556 z m 1820.5538,-1391.3925 c 12.5213,-6.1215 22.218,-15.1984 28.2549,-26.449 6.6529,-12.3984 8.0953,-19.1392 7.3369,-34.2886 -0.5425,-10.837 -1.334,-14.4824 -4.7849,-22.0384 -5.8453,-12.7987 -17.8641,-25.0064 -30.8901,-31.3755 l -10.03,-4.9043 -84.2359,-0.3802 c -82.7092,-0.3735 -84.3887,-0.3294 -92.6667,2.4369 -9.2474,3.0904 -18.0729,8.3075 -24.7537,14.6328 -4.4757,4.2376 -13.9421,17.7995 -14.8752,21.3105 -0.2924,1.1 -1.3424,4.9808 -2.3333,8.6239 -2.4167,8.8841 -2.2776,23.9224 0.3034,32.8008 2.7895,9.5955 11.3438,23.6604 17.2256,28.3221 2.778,2.2018 4.3523,4.4011 3.8179,5.3334 -0.5004,0.8725 -0.4345,1.1576 0.1463,0.6332 0.5808,-0.5243 3.7056,0.5994 6.9441,2.4973 3.2384,1.8979 9.3093,4.5555 13.4911,5.9057 7.0988,2.2924 13.2182,2.4363 92.2697,2.1695 l 84.6667,-0.2859 z m -3030.3047,-30.7135 c 4.2945,-2.0119 8.4373,-3.2691 9.206,-2.794 0.7821,0.4833 1.0048,0.2281 0.5056,-0.5796 -0.4907,-0.7939 0.1666,-1.7797 1.4606,-2.1911 3.2915,-1.046 13.1508,-10.8525 18.0067,-17.9102 12.5972,-18.3095 13.7431,-45.5824 2.7627,-65.757 -7.2035,-13.235 -22.7838,-25.6985 -37.1106,-29.6866 -7.125,-1.9834 -16.9212,-2.1771 -92.1344,-1.8216 l -84.1616,0.3978 -11.5833,5.8743 c -13.7379,6.9671 -21.1264,14.5824 -28.4632,29.3376 -4.5141,9.0785 -4.9529,10.9856 -5.4179,23.5473 -0.3841,10.3755 0.047,15.384 1.787,20.7882 5.1418,15.9654 15.6749,29.3044 29.2922,37.0954 13.9099,7.9584 13.4178,7.9226 104.7084,7.627 l 83.3334,-0.2698 z m 2694.8582,-689.5819 c 4.4,-1.2901 8.7237,-2.9406 9.6082,-3.6678 0.8846,-0.7272 2.3846,-0.8743 3.3334,-0.327 0.9488,0.5475 1.289,0.5131 0.7561,-0.076 -0.8156,-0.902 13.5269,-9.6826 42.9689,-26.3057 6.3747,-3.5992 49.8345,-28.7496 60.1133,-34.7879 3.3624,-1.9752 6.5124,-3.1922 7,-2.7046 0.4878,0.4877 0.8867,0.2657 0.8867,-0.4931 0,-0.7589 3.8969,-3.6589 8.66,-6.4444 22.0364,-12.8873 34.0067,-32.5472 34.0067,-55.852 0,-17.3137 -6.5043,-32.9885 -18.5707,-44.7537 -9.0861,-8.8595 -18.0893,-13.9259 -29.5448,-16.6262 -18.7447,-4.4184 -31.7588,-1.6682 -54.7664,11.5732 -9.0482,5.2076 -17.2014,9.4716 -18.1181,9.4756 -0.9167,0 -1.3812,0.2927 -1.0323,0.6416 0.6439,0.6439 -18.9674,12.2546 -20.6986,12.2546 -0.5184,0 -1.7122,0.9273 -2.6528,2.0606 -0.9406,1.1334 -2.6458,1.7018 -3.7892,1.263 -1.1436,-0.4388 -1.6591,-0.3779 -1.1456,0.1356 0.5133,0.5134 -10.005,7.2124 -23.374,14.8866 -46.2204,26.5319 -49.5995,28.6776 -56.6202,35.9535 -15.4757,16.0381 -21.2417,38.9404 -15.2466,60.56 3.0458,10.9845 7.5041,18.654 15.6121,26.8572 16.598,16.7928 40.1701,22.9583 62.6139,16.3772 z m -2507.3333,-26.132 c 18.1145,-2.8248 36.6682,-15.7361 45.7584,-31.8428 2.2962,-4.0689 4.2838,-8.0102 4.4168,-8.7585 0.1333,-0.7481 0.8833,-4.0604 1.6673,-7.3604 3.2936,-13.8619 0.8401,-31.4852 -6.1783,-44.3805 -6.5984,-12.1234 -15.8514,-19.6823 -43.7378,-35.7296 -14.2595,-8.2058 -25.9264,-15.3378 -25.9264,-15.8491 0,-0.5113 -0.75,-0.9485 -1.6667,-0.9717 -0.9167,-0.023 -14.8667,-7.7164 -31,-17.0964 -56.6625,-32.9435 -57.2976,-33.2199 -76,-33.0804 -18.1636,0.1353 -32.1122,6.1434 -44.6696,19.2405 -15.0606,15.7079 -20.7205,37.65 -15.2209,59.0081 5.0191,19.492 15.3653,30.7379 42.6065,46.3118 10.5503,6.0316 18.8125,11.5649 18.3605,12.2962 -0.452,0.7314 -0.1793,0.9326 0.6062,0.4472 0.7854,-0.4854 13.0281,5.8092 27.206,13.988 73.4401,42.3655 72.8209,42.0443 84.4446,43.806 9.6048,1.4559 9.8171,1.4556 19.3334,-0.028 z m 1983.2866,-507.3389 c 10.3189,-2.6877 18.8711,-7.4561 26.8663,-14.9798 3.5825,-3.3712 6.9637,-6.02 7.5137,-5.8863 0.55,0.1339 0.8565,-0.2067 0.6813,-0.7567 -0.2956,-0.9273 27.2758,-49.4414 34.4615,-60.6381 1.7548,-2.7343 3.1905,-5.2736 3.1905,-5.6431 0,-0.3694 4.9899,-9.2324 11.0886,-19.6953 29.0481,-49.8352 30.2384,-52.1488 32.4784,-63.1332 1.7572,-8.6169 1.8806,-12.2307 0.6812,-19.946 -0.8058,-5.1823 -1.8931,-10.5383 -2.4164,-11.902 -0.7203,-1.8769 -0.4914,-2.2404 0.9417,-1.4955 1.4367,0.747 1.4109,0.5586 -0.1067,-0.7812 -1.1,-0.971 -2.971,-3.8656 -4.1578,-6.4322 -3.805,-8.2288 -13.1646,-18.7178 -21.5231,-24.1202 -19.8915,-12.8564 -44.9809,-13.9725 -65.3151,-2.9053 -12.1641,6.6207 -19.4214,15.3067 -34.2776,41.0255 -33.766,58.4553 -37.8514,65.3786 -39.0346,66.149 -0.6891,0.4487 -1.1704,1.2159 -1.0696,1.7048 0.4096,1.9882 -8.5738,16.588 -9.7568,15.857 -0.7026,-0.4343 -0.9048,-0.1866 -0.4494,0.5502 0.4555,0.737 -2.2348,6.6796 -5.9784,13.206 -10.0884,17.588 -12.1494,24.218 -12.1862,39.1996 -0.027,10.6447 0.5266,14.0335 3.4628,21.2287 1.9217,4.7091 3.1258,9.2091 2.6761,10 -0.4497,0.7909 -0.3408,1.0072 0.2423,0.4805 0.583,-0.5265 2.8785,1.788 5.101,5.1435 4.3487,6.5652 14.294,15.0801 22.5083,19.2707 12.572,6.4138 30.176,8.1986 44.3781,4.4994 z m -1444.62,-15.4032 c 23.1839,-5.3394 42.4423,-25.4217 47.5007,-49.533 3.3505,-15.97 0.8936,-29.2436 -8.4567,-45.6866 -7.1565,-12.5852 -46.718,-81.7657 -48.4173,-84.6666 -0.6443,-1.1 -5.2069,-8.9 -10.1391,-17.3334 -14.1598,-24.2113 -18.7449,-30.3708 -27.291,-36.6621 -12.9124,-9.5056 -20.5516,-11.8737 -38.5299,-11.9444 -15.1308,-0.059 -15.4719,0.013 -25.8257,5.0664 -6.7083,3.2777 -12.9595,7.626 -17.3334,12.0571 -7.0765,7.169 -11.9349,12.9989 -12.499,14.9984 -0.1787,0.6332 -1.6455,4.7513 -3.2595,9.1513 -3.9584,10.7913 -4.108,30.0467 -0.316,40.6667 2.2205,6.2186 11.7087,23.1544 48.5543,86.6666 34.3693,59.2439 32.9822,57.1686 44.0126,65.855 6.3935,5.0348 17.4439,10.1066 26,11.9332 5.2274,1.1158 20.0983,0.7906 26,-0.5686 z m 736.27,-189.7549 c 14.6184,-7.2552 24.3692,-17.3172 31.4776,-32.4819 l 3.5857,-7.6494 v -87.4026 -87.4024 l -5.0878,-10.2945 c -6.8066,-13.7721 -15.9716,-22.9851 -29.5142,-29.6684 l -10.6018,-5.2321 h -16.7315 c -16.5788,0 -16.8225,0.045 -26.7313,4.9085 -5.5,2.6997 -12.4,7.2632 -15.3333,10.1411 -6.1835,6.0666 -13.1827,14.1612 -13.6708,15.8101 -0.1856,0.6272 -1.8202,5.3403 -3.6323,10.4736 l -3.2948,9.3333 v 80.6667 c 0,49.6592 0.5167,82.9157 1.3469,86.5176 4.9355,21.4081 25.7038,42.3539 46.586,46.9839 2.5667,0.569 10.7881,0.8301 18.27,0.5801 12.49,-0.4173 14.3996,-0.8497 23.3333,-5.2836 z"
       style="fill:#000000;stroke-width:1.33333325" />
    <path
       inkscape:connector-curvature="0"
       id="path1478"
       d="M 3113.423,493.9312 C 2630.6412,452.3201 2115.7427,288.3607 1700.4642,44.002096 1528.916,-56.940504 1274.003,-238.8966 1185.6182,-323.4935 c -8.4373,-8.0757 -55.654,-50.9558 -104.9258,-95.2891 C 978.17979,-511.0202 818.79844,-686.6319 716.6307,-819.9179 348.06476,-1300.742 118.6901,-1849.0566 34.694972,-2450.0688 12.453149,-2609.2162 3.5258375,-3026.6822 18.793697,-3193.6567 c 67.879221,-742.35 353.279373,-1407.3578 842.680993,-1963.5218 562.58311,-639.3286 1349.05491,-1043.5943 2205.92641,-1133.8998 217.8048,-22.9544 619.0343,-15.3016 823.28,15.7027 166.8541,25.3283 332.4646,61.1031 484.1359,104.582 389.7779,111.7358 828.3735,339.6718 1157.3106,601.4486 126.8871,100.9801 358.6102,325.5463 469.6261,455.1216 815.6519,952.0101 1042.2818,2279.3634 588.0838,3444.3583 -324.6705,832.7629 -963.0003,1507.0183 -1774.1002,1873.9475 -523.353,236.757 -1126.5979,339.47 -1702.3143,289.8488 z m 852.3739,-1408.3505 c 16.9022,-16.9022 19.5141,-44.3248 25.0826,-263.3474 7.5935,-298.6654 19.5229,-397.2824 64.7892,-535.5917 46.3636,-141.6625 112.191,-273.5593 250.5587,-502.0389 267.9471,-442.4473 330.501,-566.7363 383.191,-761.3662 24.5732,-90.7703 27.7856,-121.2466 28.567,-271.0176 0.6648,-127.4937 -3.6434,-189.4189 -17.6239,-253.3062 -116.4682,-532.2276 -508.3489,-917.9464 -1037.9261,-1021.6055 -119.1302,-23.3185 -344.8157,-23.3185 -463.9458,0 -473.818,92.7449 -843.4912,415.2273 -994.9897,867.9742 -99.2316,296.5491 -86.6919,596.6033 37.0944,887.6103 51.998,122.2411 118.5103,241.1384 275.2621,492.0578 191.8813,307.1528 298.0208,540.1973 325.9171,715.598 13.9502,87.713 31.1055,372.1086 31.2217,517.5842 0.082,106.6482 1.6454,115.5632 22.8212,130.3953 19.8404,13.8967 88.09,15.9205 536.9217,15.9205 486.1354,0 515.2214,-1.0295 533.0588,-18.8668 z m 1079.8139,-2277.8434 c 22.3355,-22.3355 20.0797,-71.964 -4.3831,-96.4267 -17.4391,-17.4392 -34.0902,-20.4542 -112.9627,-20.4542 -84.5829,0 -94.6593,2.1506 -117.6114,25.1029 -29.0225,29.0224 -31.6186,53.0872 -9.1824,85.1194 14.7118,21.0039 23.9743,22.7297 121.9946,22.7297 82.7946,0 109.6008,-3.527 122.145,-16.0711 z m -3029.8475,-31.5358 c 10.8956,-9.8604 18.7027,-30.9638 18.7027,-50.5554 0,-51.9188 -28.0876,-65.471 -135.6925,-65.471 -83.0873,0 -92.2986,2.0656 -116.3154,26.0824 -20.2257,20.2258 -24.5886,32.282 -19.4295,53.6921 10.8836,45.1685 31.5293,53.1776 137.078,53.1776 75.8647,0 101.0221,-3.6816 115.6567,-16.9257 z m 2754.4468,-716.9072 c 73.6095,-43.6698 82.1452,-51.969 85.0927,-82.7334 4.0597,-42.3741 -21.2917,-73.1897 -60.2117,-73.1897 -33.6005,0 -169.2285,75.7897 -183.5646,102.577 -5.5348,10.3418 -10.0632,26.2183 -10.0632,35.281 0,22.225 45.7521,66.6932 68.5679,66.6437 10.0993,-0.021 55.1797,-21.8823 100.1789,-48.5786 z m -2551.6567,-2.5169 c 27.478,-27.478 25.8165,-67.6146 -3.9364,-95.0889 -13.4148,-12.3874 -53.8592,-38.2234 -89.8766,-57.4132 -74.0483,-39.4525 -113.6577,-38.338 -132.8285,3.7374 -21.282,46.7086 -3.6144,73.5962 80.8467,123.0377 87.3264,51.119 115.4416,56.0801 145.7948,25.727 z m 2023.1338,-576.967 c 45.2354,-79.5058 52.5102,-117.467 27.3354,-142.6417 -48.6579,-48.658 -90.8276,-25.1492 -150.907,84.1277 -45.7855,83.278 -45.4061,117.4123 1.5648,140.8298 43.4298,21.6522 74.9548,0.3825 122.0068,-82.3158 z m -1491.3256,55.3858 c 27.7343,-27.7343 25.7076,-63.8343 -6.7874,-120.9038 -51.467,-90.3888 -73.7041,-114.319 -106.2309,-114.319 -35.0225,0 -71.0691,31.5151 -71.0691,62.1349 0,24.2461 76.2107,161.4853 100.3773,180.7583 23.7109,18.9093 60.5015,15.5383 83.7101,-7.6704 z m 724.1943,-184.4859 c 19.9788,-18.613 22.3826,-31.2437 22.3826,-117.6114 0,-107.8664 -14.7691,-137.6671 -68.2275,-137.6671 -53.5654,0 -64.7245,23.1955 -64.7245,134.5371 0,87.0497 2.7701,103.4558 20.4541,121.1399 26.2239,26.2239 61.7081,26.067 90.1153,-0.3989 z"
       style="fill:#51777c;fill-opacity:1;stroke:#ffffff;stroke-width:38.65353394;stroke-miterlimit:4;stroke-dasharray:none;stroke-opacity:1" />
    <path
       inkscape:connector-curvature="0"
       id="path1480"
       d="m 2880.0056,-1891.8653 c -46.9971,-115.4337 -126.3999,-259.9611 -267.3437,-486.6139 -203.8139,-327.7548 -263.6314,-448.6902 -308.4122,-623.5291 -147.8416,-577.2217 229.0833,-1201.8124 824.5139,-1366.277 132.3175,-36.5476 382.4124,-46.4995 512.1632,-20.3803 304.8775,61.3727 577.9802,239.2732 745.0926,485.357 138.6732,204.2054 218.6328,489.5446 200.5554,715.6909 -18.3613,229.6986 -93.6147,405.1989 -356.3388,831.0262 -120.5817,195.4406 -182.7401,308.4605 -238.26,433.2173 l -54.6157,122.725 -77.0318,2.9869 -77.0317,2.9871 v -418.1555 c 0,-392.1139 -1.1648,-419.2095 -18.7027,-435.0811 -24.3908,-22.0734 -66.0583,-21.6021 -85.9106,0.9716 -8.6569,9.8435 -31.8245,53.0077 -51.4835,95.9203 -108.4145,236.6512 -284.4127,237.9676 -392.12,2.9328 -44.9126,-98.0066 -60.3393,-116.7504 -96.0893,-116.7504 -54.3352,0 -61.3625,21.8624 -61.3625,190.9041 0,84.4242 -3.039,271.601 -6.7532,415.9483 l -6.7533,262.4495 -72.5066,-0.1432 -72.5067,-0.1432 -39.1028,-96.0439 z"
       style="fill:#51777c;fill-opacity:1;stroke:#ffffff;stroke-width:38.65353394;stroke-miterlimit:4;stroke-dasharray:none;stroke-opacity:1" />
    <path
       inkscape:connector-curvature="0"
       id="path1482"
       d="m 3210.5803,-2061.6093 v -266.0737 l 51.8851,35.6906 c 58.7092,40.3849 107.3651,56.5523 170.4442,56.6352 53.171,0.07 130.9858,-28.4762 180.4331,-66.1915 l 37.002,-28.2228 v 267.1179 267.118 h -219.8822 -219.8822 z"
       style="fill:#51777c;fill-opacity:1;stroke:#ffffff;stroke-width:38.65353394;stroke-miterlimit:4;stroke-dasharray:none;stroke-opacity:1" />
    <path
       inkscape:connector-curvature="0"
       id="path1484"
       d="m 2991.5531,-1460.5987 c -2.5565,-12.6561 -7.0043,-43.7208 -9.884,-69.0328 -2.8797,-25.3121 -8.3672,-65.5812 -12.1944,-89.487 l -6.9586,-43.4651 h 467.748 467.748 l -6.5884,26.25 c -6.4846,25.837 -25.3778,160.9969 -25.9945,185.9619 -0.2475,10.0215 -94.1934,12.7839 -434.7719,12.7839 h -434.4561 z"
       style="fill:#51777c;fill-opacity:1;stroke:#ffffff;stroke-width:38.65353394;stroke-miterlimit:4;stroke-dasharray:none;stroke-opacity:1" />
    <path
       inkscape:connector-curvature="0"
       id="path1486"
       d="m 3004.0353,-1166.5874 -3.1102,-138.0828 426.9806,0.017 426.9806,0.017 v 138.0656 138.0656 h -423.8704 -423.8704 z"
       style="fill:#51777c;fill-opacity:1;stroke:#ffffff;stroke-width:38.65353394;stroke-miterlimit:4;stroke-dasharray:none;stroke-opacity:1" />
  </g>
</svg>
