<?xml version="1.0" encoding="UTF-8" standalone="no"?>
<!-- Created with Inkscape (http://www.inkscape.org/) -->

<svg
   xmlns:dc="http://purl.org/dc/elements/1.1/"
   xmlns:cc="http://creativecommons.org/ns#"
   xmlns:rdf="http://www.w3.org/1999/02/22-rdf-syntax-ns#"
   xmlns:svg="http://www.w3.org/2000/svg"
   xmlns="http://www.w3.org/2000/svg"
   xmlns:sodipodi="http://sodipodi.sourceforge.net/DTD/sodipodi-0.dtd"
   xmlns:inkscape="http://www.inkscape.org/namespaces/inkscape"
   version="1.1"
   id="svg1488"
   width="512"
   height="512"
   viewBox="0 0 512 512"
   sodipodi:docname="Sleep-Icon.svg"
   inkscape:version="0.92.4 (5da689c313, 2019-01-14)">
  <metadata
     id="metadata1494">
    <rdf:RDF>
      <cc:Work
         rdf:about="">
        <dc:format>image/svg+xml</dc:format>
        <dc:type
           rdf:resource="http://purl.org/dc/dcmitype/StillImage" />
        <dc:title></dc:title>
      </cc:Work>
    </rdf:RDF>
  </metadata>
  <defs
     id="defs1492" />
  <sodipodi:namedview
     pagecolor="#ffffff"
     bordercolor="#666666"
     borderopacity="1"
     objecttolerance="10"
     gridtolerance="10"
     guidetolerance="10"
     inkscape:pageopacity="0"
     inkscape:pageshadow="2"
     inkscape:window-width="1920"
     inkscape:window-height="1017"
     id="namedview1490"
     showgrid="false"
     inkscape:zoom="0.834386"
     inkscape:cx="221.91919"
     inkscape:cy="261.9513"
     inkscape:window-x="-8"
     inkscape:window-y="-8"
     inkscape:window-maximized="1"
     inkscape:current-layer="svg1488" />
  <path
     style="fill:#51777c;fill-opacity:1;stroke:#ffffff;stroke-width:5.6932745;stroke-miterlimit:4;stroke-dasharray:none;stroke-opacity:1"
     d="M 227.65108,508.78847 C 164.72714,499.55389 118.78747,477.16129 76.853827,435.28463 40.11556,398.5963 17.732635,357.41021 6.5706081,305.95878 1.9994575,284.88804 1.6471718,233.71716 5.9158641,210.85418 16.514242,154.08963 48.050047,99.691102 91.455372,63.300605 109.55919,48.12258 124.06217,38.676238 144.76483,28.578109 235.12252,-15.495642 341.8896,-2.2271367 419.28568,62.694264 c 47.08337,39.494486 78.39237,95.938366 88.02943,158.699606 2.93409,19.1082 2.19882,57.09024 -1.51364,78.1904 -14.07826,80.01528 -65.30358,148.28625 -137.99725,183.91695 -37.4731,18.36738 -64.99374,24.88826 -107.75214,25.53141 -15.33397,0.23064 -29.9144,0.12077 -32.401,-0.24416 z M 107.84277,387.77025 V 371.2079 h 151.4558 151.4558 v 16.56235 16.56236 h 17.33077 17.33075 v -52.06139 -52.0614 l -4.40514,-4.40117 c -3.82998,-3.82655 -5.51761,-4.40119 -12.92561,-4.40119 -7.40801,0 -9.09566,0.57464 -12.92562,4.40119 -4.03891,4.03526 -4.40515,5.28711 -4.40515,15.0567 v 10.65548 h -151.4558 -151.4558 l -0.009,-47.80498 c -0.009,-51.63084 -0.63988,-56.96551 -7.55285,-63.87227 -3.708513,-3.70517 -5.410782,-4.25924 -13.085814,-4.25924 -10.595062,0 -14.733316,2.4644 -18.665498,11.1156 -2.651388,5.83331 -2.81984,11.55936 -2.85097,96.91615 l -0.0331,90.71652 h 21.098314 21.098328 z m 52.41349,-77.05212 c 9.18715,-2.31127 20.76474,-13.48041 22.26712,-21.48154 1.88149,-10.02025 0.005,-20.02234 -4.90001,-26.11969 -14.49705,-18.02069 -41.92629,-17.24463 -54.36738,1.53822 -3.44066,5.19452 -4.11055,7.83671 -4.11055,16.21266 0,8.33501 0.6754,11.02646 4.04286,16.11045 4.39232,6.63127 12.37751,12.29058 19.85579,14.0723 6.99551,1.66668 9.45472,1.61918 17.21217,-0.3324 z m 235.13192,-11.4059 c -0.81293,-16.1143 -5.9041,-27.73442 -16.06743,-36.67252 -11.84417,-10.41627 -11.46486,-10.37964 -107.48601,-10.37964 h -85.62679 v 30.11338 30.11338 H 291.13038 396.05282 Z M 204.8845,222.77639 c 2.35073,-6.1204 1.38834,-6.65237 -12.03511,-6.65237 h -12.94986 l 11.81959,-9.99442 c 12.88461,-10.89498 14.75637,-13.17522 13.50005,-16.44623 -0.66761,-1.73816 -4.87567,-2.16705 -21.26176,-2.16705 h -20.42939 l -1.46973,3.86219 c -0.80834,2.12419 -1.46973,4.12947 -1.46973,4.45611 0,0.32666 5.54409,0.7907 12.32019,1.03123 l 12.32017,0.43731 -13.07367,10.99155 c -8.19564,6.89037 -13.07372,12.087 -13.07372,13.92744 0,2.77931 1.19697,2.93589 22.44412,2.93589 19.07588,0 22.58138,-0.35743 23.35885,-2.38165 z m 50.56436,-12.68788 c 16.11764,-2.47729 29.78676,-4.50417 30.37579,-4.50417 1.22351,0 3.53427,-14.88578 2.47504,-15.94406 -0.38236,-0.38201 -9.25684,0.67769 -19.72106,2.3549 -10.46423,1.67721 -19.70749,3.04948 -20.5406,3.04948 -0.83309,0 5.93727,-9.46538 15.0453,-21.03417 12.13069,-15.40811 16.55385,-22.15373 16.53696,-25.21994 -0.0479,-8.68 0.0151,-8.67313 -33.02201,-3.63427 -16.72406,2.55082 -31.05009,5.03473 -31.83566,5.51978 -1.19273,0.7365 -2.20059,15.81707 -1.0515,15.7335 0.20721,-0.0151 8.48752,-1.34083 18.4007,-2.94616 9.91314,-1.60532 18.18801,-2.75482 18.38854,-2.55444 0.20055,0.20035 -7.12714,10.05338 -16.28373,21.89558 -15.54034,20.0983 -16.5841,21.87346 -15.68297,26.67256 1.1953,6.3657 -0.35613,6.34001 36.9152,0.61141 z M 378.3563,178.47265 c 1.50735,-4.97399 2.30873,-9.47517 1.78082,-10.00262 -0.52793,-0.52743 -12.13752,-2.07629 -25.79916,-3.44188 -13.66163,-1.36559 -25.16837,-2.81165 -25.57055,-3.21349 -0.40218,-0.40181 11.16441,-9.80345 25.70353,-20.8925 14.53913,-11.08906 27.38636,-21.11265 28.54941,-22.27464 1.1754,-1.17436 2.11462,-5.06159 2.11462,-8.75202 0,-8.0514 3.35514,-7.11357 -39.9361,-11.16296 -18.23497,-1.705663 -35.29222,-3.449445 -37.90496,-3.875058 -4.62647,-0.753643 -4.84588,-0.527099 -8.40463,8.677198 -2.44379,6.32058 -3.11655,9.76284 -2.03114,10.3924 0.89266,0.51774 11.65586,1.81663 23.91822,2.8864 12.26237,1.06975 22.59595,2.43118 22.96351,3.02539 0.36757,0.5942 -11.80393,10.69677 -27.04776,22.45015 -16.34669,12.60372 -28.07635,22.71164 -28.59429,24.64096 -0.87549,3.26112 -1.25808,11.47092 -0.54257,11.64286 1.62794,0.39116 79.78238,8.58065 83.40117,8.73926 4.43259,0.19428 4.79251,-0.23566 7.39988,-8.83945 z"
     id="path2051"
     inkscape:connector-curvature="0" />
</svg>
