<?xml version="1.0" encoding="UTF-8" standalone="no"?>
<!-- Created with Inkscape (http://www.inkscape.org/) -->

<svg
   xmlns:dc="http://purl.org/dc/elements/1.1/"
   xmlns:cc="http://creativecommons.org/ns#"
   xmlns:rdf="http://www.w3.org/1999/02/22-rdf-syntax-ns#"
   xmlns:svg="http://www.w3.org/2000/svg"
   xmlns="http://www.w3.org/2000/svg"
   xmlns:sodipodi="http://sodipodi.sourceforge.net/DTD/sodipodi-0.dtd"
   xmlns:inkscape="http://www.inkscape.org/namespaces/inkscape"
   version="1.1"
   id="svg2053"
   width="512"
   height="512"
   viewBox="0 0 512 512"
   sodipodi:docname="Yoga-Icon.svg"
   inkscape:version="0.92.4 (5da689c313, 2019-01-14)">
  <metadata
     id="metadata2059">
    <rdf:RDF>
      <cc:Work
         rdf:about="">
        <dc:format>image/svg+xml</dc:format>
        <dc:type
           rdf:resource="http://purl.org/dc/dcmitype/StillImage" />
        <dc:title></dc:title>
      </cc:Work>
    </rdf:RDF>
  </metadata>
  <defs
     id="defs2057" />
  <sodipodi:namedview
     pagecolor="#ffffff"
     bordercolor="#666666"
     borderopacity="1"
     objecttolerance="10"
     gridtolerance="10"
     guidetolerance="10"
     inkscape:pageopacity="0"
     inkscape:pageshadow="2"
     inkscape:window-width="1920"
     inkscape:window-height="1017"
     id="namedview2055"
     showgrid="false"
     inkscape:zoom="0.78223689"
     inkscape:cx="-4.11664"
     inkscape:cy="186.0801"
     inkscape:window-x="-8"
     inkscape:window-y="-8"
     inkscape:window-maximized="1"
     inkscape:current-layer="svg2053" />
  <g
     id="g2690"
     transform="matrix(0.99634031,0,0,0.99645062,0.77651901,0.56521981)">
    <path
       inkscape:connector-curvature="0"
       id="path2672"
       d="m 250.5,511.89299 c -27.38407,-0.55557 -54.63042,-5.53389 -80.3,-14.67204 -13.06766,-4.65197 -26.07494,-10.51805 -37.9,-17.09232 -2.65542,-1.47631 -3.19851,-1.78333 -4.7,-2.65704 C 112.5059,468.68842 98.228769,458.3111 85.35,446.76223 79.089861,441.14852 71.740666,433.84914 66.258098,427.79971 48.602356,408.31849 33.908657,386.00653 23.01831,362.14133 9.8773141,333.34405 2.2270828,302.29109 0.45379907,270.55 c -0.52219757,-9.34713 -0.52219757,-19.75287 0,-29.1 C 2.9839132,196.16195 17.44028,152.58689 42.454347,114.85 50.674612,102.44869 60.028206,90.673211 70.096973,80.05 72.153745,77.87997 79.110996,70.971007 81.134268,69.089311 91.977709,59.004626 102.6566,50.555875 114.55,42.651999 c 4.91233,-3.264537 11.18818,-7.123568 15.45,-9.500223 10.63375,-5.930044 18.61401,-9.808355 28.85,-14.02076 35.60949,-14.6543277 74.41826,-21.0122137 113.4,-18.57786753 29.19988,1.82348483 57.6928,8.60113593 84.6,20.12392153 4.6634,1.997062 11.38346,5.139075 14.95,6.989984 4.09276,2.123995 5.48069,2.883281 5.42758,2.969216 -0.0322,0.05205 -0.009,0.06425 0.0508,0.02711 0.0951,-0.05877 1.16846,0.506904 4.72166,2.488392 7.73277,4.312279 19.08353,11.682309 25.86044,16.791147 0.54426,0.410292 1.28206,0.961847 1.63956,1.225677 6.44129,4.753577 14.32858,11.369417 21.3679,17.923333 2.10951,1.964047 8.95208,8.759259 11.03443,10.958067 13.04688,13.776492 24.7553,29.292304 34.44807,45.650004 0.53774,0.9075 1.12443,1.8975 1.30375,2.2 2.33344,3.93634 6.64097,12.07424 9.02485,17.05 12.67363,26.45302 20.45699,53.56374 23.71409,82.6 1.53879,13.71798 1.94427,28.83853 1.15311,43 -3.03177,54.26744 -23.1263,105.74196 -57.7353,147.89574 -3.31523,4.03796 -7.5125,8.81406 -11.25247,12.80426 -2.44554,2.60918 -9.10328,9.24809 -11.6911,11.65807 -7.02705,6.5441 -14.92427,13.16845 -21.36733,17.92333 -0.3575,0.26383 -1.0953,0.81538 -1.63956,1.22568 -6.77691,5.10883 -18.12767,12.47886 -25.86044,16.79114 -3.5532,1.98149 -4.62656,2.54717 -4.72166,2.4884 -0.0601,-0.0371 -0.0832,-0.0254 -0.0515,0.026 0.0901,0.14584 -5.70604,3.1689 -10.39091,5.41948 -29.70496,14.2701 -61.67204,22.60563 -94.58597,24.66363 -3.99565,0.24984 -6.58237,0.35273 -11.4,0.45347 -4.96378,0.1038 -4.92793,0.10382 -10.35,-0.006 z m -84.3,-88.98406 c 2.87997,-0.34388 1.85244,-0.1376 24.45,-4.90839 4.455,-0.94054 10.1025,-2.13273 12.55,-2.6493 7.29019,-1.53868 13.44574,-2.83907 15.15,-3.20051 0.88,-0.18663 3.76,-0.79463 6.4,-1.35111 2.64,-0.55649 7.14,-1.50649 10,-2.11113 2.86,-0.60463 7.75409,-1.63678 10.87576,-2.29365 3.12167,-0.65688 6.73292,-1.41963 8.025,-1.695 L 256,404.19916 l 2.34924,0.50068 c 1.29208,0.27537 4.90333,1.03812 8.025,1.695 3.12167,0.65687 8.01576,1.68902 10.87576,2.29365 2.86,0.60464 7.36,1.55464 10,2.11113 2.64,0.55648 5.52,1.16448 6.4,1.35111 1.70426,0.36144 7.85981,1.66183 15.15,3.20051 2.4475,0.51657 8.095,1.70876 12.55,2.6493 22.52337,4.75513 21.7944,4.60969 24.9,4.96801 1.90463,0.21976 7.83246,0.25186 9.45,0.0512 7.76939,-0.96394 13.37358,-3.50615 18.11233,-8.21624 3.19669,-3.17735 5.33124,-6.52576 6.91888,-10.85349 2.81296,-7.66777 2.73994,-17.22793 -0.19688,-25.77811 -3.48743,-10.1532 -10.18478,-17.78303 -18.44463,-21.01269 -1.21987,-0.47698 -2.92044,-0.96928 -25.9397,-7.5093 -2.585,-0.73443 -7.94,-2.2578 -11.9,-3.38527 -3.96,-1.12747 -8.5725,-2.43754 -10.25,-2.91125 -1.6775,-0.47372 -3.26439,-0.93085 -3.52642,-1.01585 l -0.47642,-0.15455 0.0577,-0.91649 c 0.0543,-0.86117 1.2866,-27.2525 1.75884,-37.66649 0.11847,-2.6125 0.24667,-4.78557 0.28489,-4.82905 0.11555,-0.13146 2.78265,4.61827 3.85805,6.87063 0.99235,2.07842 1.05963,2.17265 1.44333,2.02158 0.10271,-0.0404 0.26033,0.10555 0.5,0.46313 1.2753,1.90273 5.01882,6.49753 7.59941,9.32752 0.30282,0.33209 0.95559,1.05128 1.45059,1.59819 3.38003,3.73452 9.0236,9.43208 15.30161,15.448 1.46554,1.40435 3.60727,3.41269 6.44839,6.04677 0.85908,0.79647 4.66301,4.26241 7.85,7.1525 3.31558,3.00669 5.29647,4.85992 7.65,7.15696 2.34745,2.29112 2.65456,2.57999 3.55,3.33917 4.21276,3.57171 8.86692,5.67095 14,6.31462 1.29015,0.16179 4.41728,0.16117 5.7,-10e-4 6.1796,-0.78183 11.79711,-3.55909 16.30057,-8.0589 4.28234,-4.27887 6.94453,-9.39278 7.96789,-15.30586 0.30367,-1.75465 0.33088,-5.79041 0.0505,-7.49414 -0.44999,-2.7347 -1.2059,-5.08428 -2.42513,-7.53802 -1.09328,-2.20027 -2.02004,-3.60774 -3.72815,-5.66198 -0.4116,-0.495 -10.71687,-10.87649 -22.90061,-23.06998 -15.32353,-15.3358 -22.25025,-22.33337 -22.47014,-22.7 -0.17484,-0.29151 -1.72655,-2.98252 -3.44824,-5.98002 -1.7217,-2.9975 -3.61001,-6.2825 -4.19625,-7.3 -0.58624,-1.0175 -1.67476,-2.9075 -2.41894,-4.2 -0.74417,-1.2925 -2.03445,-3.53212 -2.86728,-4.97693 -0.83284,-1.44481 -1.51425,-2.65286 -1.51425,-2.68456 0,-0.0317 -0.0836,-0.17708 -0.18568,-0.32307 -0.17416,-0.24897 -0.77789,-1.29177 -5.0424,-8.70962 -0.93094,-1.6193 -2.55,-4.4318 -3.59793,-6.25 -1.04792,-1.8182 -2.74508,-4.76832 -3.77146,-6.55582 -1.02637,-1.7875 -2.39822,-4.1725 -3.04855,-5.3 -1.53081,-2.65401 -5.69978,-9.89235 -7.42985,-12.9 -2.74418,-4.77064 -3.16353,-5.47239 -3.89788,-6.5228 -6.69647,-9.57853 -19.24214,-15.53928 -37.72625,-17.92463 -1.76103,-0.22726 -4.56751,-0.54211 -4.98568,-0.55934 -0.10779,-0.004 -0.0783,-0.0454 0.0857,-0.11916 0.92132,-0.4142 3.91978,-1.94233 4.75,-2.4208 5.66749,-3.26623 11.07042,-8.07279 15.06624,-13.40327 5.32776,-7.1073 8.53968,-15.29434 9.65103,-24.6 0.28186,-2.36014 0.25386,-8.44451 -0.0503,-10.9349 -1.40469,-11.50009 -6.2798,-21.56817 -14.366,-29.66869 C 283.46486,95.546536 273.14954,90.491339 262.3,89.15851 c -2.28364,-0.280538 -3.62529,-0.356447 -6.3,-0.356447 -2.67471,0 -4.01636,0.07591 -6.3,0.356447 -10.87317,1.335732 -21.18783,6.399454 -29,14.23681 -7.71438,7.73926 -12.62631,17.57154 -14.14021,28.30468 -0.3513,2.49064 -0.40975,3.50235 -0.40731,7.05 0.003,3.94151 0.095,5.13306 0.65509,8.46271 2.24634,13.3528 10.11438,25.4184 21.54243,33.0352 2.07016,1.37976 3.15927,2.0104 5.5,3.18469 l 1.8,0.90302 -1.91843,0.17817 c -20.17634,1.87388 -33.3058,7.87626 -40.65503,18.58621 -0.64248,0.93628 -1.13132,1.75944 -3.80067,6.4 -1.73007,3.00765 -5.89904,10.24599 -7.42985,12.9 -0.65033,1.1275 -2.02218,3.5125 -3.04855,5.3 -1.02638,1.7875 -2.72354,4.73762 -3.77146,6.55582 -1.04793,1.8182 -2.66687,4.6307 -3.59765,6.25 -1.67322,2.91093 -4.95887,8.60397 -5.13315,8.89418 -0.0495,0.0825 -0.77264,1.3425 -1.60689,2.8 -1.406,2.4564 -2.56156,4.46652 -5.28879,9.2 -0.58624,1.0175 -2.47455,4.3025 -4.19625,7.3 -1.72169,2.9975 -3.2734,5.68851 -3.44824,5.98002 -0.21989,0.36663 -7.14661,7.3642 -22.47014,22.7 -12.18374,12.19349 -22.48901,22.57498 -22.90061,23.06998 -3.3872,4.07356 -5.34131,8.26551 -6.15328,13.2 -0.280035,1.70179 -0.253129,5.73963 0.0499,7.49029 1.28918,7.44769 5.36819,13.92698 11.56908,18.37685 3.74564,2.68794 8.13881,4.41469 12.7,4.99176 1.28272,0.16229 4.40985,0.16291 5.7,0.001 4.88583,-0.61267 9.3556,-2.54977 13.35,-5.78559 1.31705,-1.06693 1.53989,-1.27239 4.25,-3.91848 2.67795,-2.61468 4.70631,-4.49844 9.75113,-9.05595 1.55963,-1.40898 4.91281,-4.46985 5.79887,-5.29337 0.3025,-0.28115 1.495,-1.38626 2.65,-2.4558 2.17676,-2.0157 2.36092,-2.18995 6.24346,-5.90716 9.38781,-8.98806 16.84462,-17.05865 20.96778,-22.69367 1.82052,-2.48805 2.4456,-3.47752 4.78877,-7.58036 0.98157,-1.71872 1.81532,-3.09 1.85277,-3.04729 0.0375,0.0427 0.16478,2.21515 0.28297,4.82765 0.21018,4.64608 1.52156,32.74285 1.70814,36.59775 0.0667,1.37757 0.0628,1.96723 -0.0134,2.01428 -0.0592,0.0366 -1.14778,0.36194 -2.41908,0.72301 -1.27131,0.36107 -6.36146,1.80899 -11.31146,3.2176 -4.95,1.40861 -10.6425,3.02735 -12.65,3.59719 -4.52153,1.28346 -17.0685,4.85508 -21.29473,6.06174 -3.52091,1.00528 -4.84847,1.4907 -6.74919,2.46778 -9.68234,4.97734 -16.65446,16.30622 -18.07555,29.37065 -0.1692,1.55546 -0.16865,6.53677 0.001,8 0.6632,5.72425 2.36509,10.62073 5.13118,14.76281 2.08991,3.12953 5.3416,6.28962 8.43742,8.19972 4.25612,2.62599 8.77383,4.01248 14.75,4.52679 0.2475,0.0213 1.8675,0.0252 3.6,0.009 2.41787,-0.0231 3.55674,-0.0786 4.9,-0.23904 z m -7.2,-4.46992 c -3.25311,-0.17854 -6.52704,-0.79545 -8.96433,-1.68918 -1.43974,-0.52794 -3.8305,-1.7253 -5.03567,-2.52201 -4.60301,-3.04294 -7.89127,-7.5209 -9.64003,-13.12782 -0.87286,-2.79858 -1.25247,-5.2572 -1.32787,-8.6 -0.0818,-3.62493 0.22375,-6.40246 1.08028,-9.82154 1.59585,-6.37028 4.69395,-11.9465 8.90859,-16.03441 2.36602,-2.29488 4.72578,-3.85678 7.56671,-5.00833 0.47428,-0.19224 5.36232,-1.63078 10.86232,-3.19675 8.62583,-2.45596 17.53735,-4.99235 39.6869,-11.29564 2.57779,-0.73358 4.71268,-1.35957 4.74419,-1.39109 0.0588,-0.0588 -2.87991,-63.56893 -2.94495,-63.64391 -0.0199,-0.0229 -0.052,-0.0229 -0.0714,0 -0.0581,0.0688 -7.2479,12.57322 -9.42481,16.39167 -1.11312,1.9525 -2.43301,4.2475 -2.93308,5.1 -1.87962,3.20431 -4.75312,6.89375 -9.19037,11.8 -1.70519,1.88542 -9.12814,9.39945 -11.70637,11.85 -3.60865,3.42995 -7.41398,6.9449 -14.56014,13.4491 -6.46472,5.88398 -9.73972,8.9246 -12.45111,11.56004 -2.35025,2.28443 -3.31037,3.09936 -4.88483,4.14618 -2.51076,1.66933 -5.23276,2.74268 -8.26406,3.2587 -1.54451,0.26293 -4.62485,0.23927 -6.25812,-0.0481 -5.00517,-0.88055 -9.3414,-3.196 -12.89529,-6.88577 -3.17042,-3.29165 -5.24547,-7.21104 -6.15914,-11.63347 -0.26149,-1.2657 -0.27831,-1.5001 -0.27963,-3.89671 -10e-4,-2.39586 0.0149,-2.62651 0.26908,-3.81572 0.7211,-3.3742 1.93801,-5.99074 4.15518,-8.93428 0.57996,-0.76997 5.95795,-6.21025 23.3792,-23.65 l 22.62597,-22.65 2.24084,-3.9 c 3.59976,-6.26511 7.52736,-13.09197 8.37084,-14.55 0.42954,-0.7425 1.36355,-2.3625 2.07556,-3.6 0.71202,-1.2375 2.08422,-3.6225 3.04934,-5.3 2.48456,-4.31851 8.3309,-14.47692 9.69746,-16.85 4.7518,-8.25166 11.03464,-19.17081 12.9752,-22.55 2.74365,-4.77765 3.05826,-5.28852 4.18758,-6.8 0.97731,-1.30803 3.62239,-4.00886 4.89874,-5.00199 6.4261,-5.00016 14.62206,-8.06749 25.90209,-9.69383 5.52967,-0.79726 10.48767,-1.1397 19.0651,-1.31679 10.45591,-0.21586 20.94001,0.0366 27.85,0.67072 19.92878,1.82877 33.13592,7.38783 39.38492,16.57764 0.77967,1.14658 0.16389,0.0853 13.96243,24.06425 5.64942,9.8175 10.71264,18.615 11.25161,19.55 0.53897,0.935 1.91184,3.32 3.05082,5.3 1.13899,1.98 2.4222,4.2075 2.85158,4.95 0.85464,1.47786 4.8504,8.42345 8.37055,14.55 l 2.24084,3.9 22.62597,22.65 c 17.42125,17.43975 22.79924,22.88003 23.3792,23.65 2.21717,2.94354 3.43408,5.56008 4.15518,8.93428 0.25414,1.18921 0.27041,1.41986 0.26908,3.81572 -0.001,2.39661 -0.0181,2.63101 -0.27963,3.89671 -1.29629,6.27445 -5.10598,11.77366 -10.56901,15.25615 -2.56056,1.63228 -5.38125,2.71698 -8.48542,3.26309 -1.63327,0.28734 -4.71361,0.311 -6.25812,0.0481 -3.0313,-0.51602 -5.7533,-1.58937 -8.26406,-3.2587 -1.57446,-1.04682 -2.53458,-1.86175 -4.88483,-4.14618 -2.71311,-2.63711 -5.99033,-5.67973 -12.45111,-11.55976 -9.96743,-9.07148 -13.79996,-12.65989 -18.68617,-17.49593 -9.02627,-8.93357 -14.37834,-15.26298 -17.25544,-20.40643 -0.35288,-0.63086 -1.84078,-3.23952 -3.30643,-5.79702 -6.33994,-11.06292 -8.55572,-14.89594 -8.61213,-14.8979 -0.0331,-0.001 -0.0912,0.68415 -0.12915,1.5229 -0.0379,0.83875 -0.65041,13.9675 -1.36105,29.175 -0.71063,15.2075 -1.34659,28.83092 -1.41324,30.27428 -0.0666,1.44335 -0.097,2.6484 -0.0676,2.67789 0.0618,0.0618 1.95321,0.60247 31.53116,9.01385 24.77693,7.04605 23.53776,6.67337 25.55088,7.68442 4.08946,2.05385 7.86241,5.72429 10.60211,10.31404 2.8363,4.7516 4.51045,9.92365 5.0611,15.63552 0.21474,2.22759 0.13832,5.95583 -0.16297,7.95 -1.20938,8.00476 -4.83045,14.02131 -10.80112,17.94652 -1.12489,0.73951 -3.55203,1.94595 -4.93567,2.45331 -1.92503,0.70589 -4.58028,1.28418 -7.16433,1.56033 -1.45341,0.15533 -5.36098,0.15423 -7,-0.002 -3.30684,-0.31513 -3.88528,-0.42452 -17.75,-3.35679 -8.37291,-1.77079 -12.71983,-2.68893 -25.075,-5.29625 -2.98375,-0.62966 -9.07,-1.91471 -13.525,-2.85567 -11.05607,-2.33518 -13.93903,-2.9438 -22.45,-4.73941 -4.0425,-0.85286 -8.62125,-1.81976 -10.175,-2.14866 l -2.825,-0.59799 -2.825,0.59799 c -1.55375,0.3289 -6.1325,1.2958 -10.175,2.14866 -8.5137,1.79618 -11.39864,2.40522 -22.45,4.73942 -9.71314,2.05154 -14.99996,3.16773 -23.45,4.95092 -3.4925,0.73701 -10.31,2.17749 -15.15,3.20107 -13.85139,2.92933 -14.59245,3.06949 -17.65,3.33822 -1.32545,0.1165 -4.34683,0.20161 -5.3,0.1493 z m 93.3,-234.7515 c -12.88072,-1.0386 -24.82192,-7.68475 -32.57435,-18.13002 -5.05686,-6.81338 -8.01356,-14.71228 -8.73284,-23.32998 -0.17666,-2.11659 -0.0672,-7.13756 0.19897,-9.12751 0.68064,-5.08844 1.99559,-9.56182 4.10063,-13.95 4.4099,-9.19294 11.93258,-16.71608 21.15759,-21.158874 12.52038,-6.029855 27.32938,-5.917393 39.73581,0.30176 12.56492,6.298604 21.54193,18.155034 24.15825,31.907114 0.5207,2.73698 0.66817,4.26452 0.72668,7.52751 0.0579,3.23132 -0.0203,4.7568 -0.37447,7.30532 -2.04467,14.71098 -11.31814,27.50522 -24.7399,34.13266 -5.23771,2.58629 -10.66088,4.07673 -16.49589,4.53355 -1.50218,0.11761 -5.64157,0.11094 -7.16048,-0.0115 z"
       style="fill:#000000;stroke-width:0.1" />
    <path
       inkscape:connector-curvature="0"
       id="path2662"
       d="m 155.28646,417.54216 c -12.59361,-2.12916 -20.70324,-12.19767 -20.70324,-25.70412 0,-10.96223 5.35486,-22.44132 12.75223,-27.33666 2.38002,-1.57503 12.84622,-5.01148 31.12775,-10.22044 15.14816,-4.31617 27.80605,-8.11152 28.12864,-8.43411 0.64283,-0.64282 -1.39252,-53.7129 -2.31148,-60.2701 l -0.57008,-4.0678 -7.21889,12.54921 c -3.9704,6.90207 -9.70505,15.46614 -12.74368,19.0313 -5.12188,6.00938 -35.91281,35.33929 -43.81829,41.73914 -10.33001,8.36259 -25.1842,4.75666 -31.93113,-7.75146 -3.11362,-5.77233 -3.5128,-13.17551 -0.98111,-18.19575 0.8539,-1.69326 12.22893,-13.85831 25.27784,-27.03345 l 23.7253,-23.9548 20.69388,-36.13286 c 13.20731,-23.06082 22.02235,-37.4791 24.36596,-39.85406 9.78196,-9.91282 28.20691,-13.76152 60.96069,-12.73378 27.77736,0.87159 41.47792,4.76182 50.26238,14.27185 1.54262,1.67003 11.87372,18.90082 22.95801,38.29065 l 20.15326,35.25424 23.77163,23.9548 c 17.10737,17.23921 24.28692,25.09519 25.6097,28.0226 4.74841,10.50857 0.0787,22.38153 -11.10802,28.24266 -4.74887,2.4881 -13.25195,2.67493 -17.54456,0.38548 -3.52371,-1.87935 -32.77899,-28.71385 -43.38633,-39.79625 -7.80726,-8.15692 -10.92747,-12.55942 -19.19065,-27.07729 -2.73446,-4.80427 -5.19938,-8.74071 -5.4776,-8.74765 -0.5076,-0.0126 -3.64192,63.48558 -3.15761,63.96989 0.14193,0.14194 12.91959,3.87581 28.39479,8.29748 15.96548,4.56177 29.29302,8.86278 30.80978,9.94281 8.46397,6.02688 12.98201,15.4106 13.07483,27.15575 0.098,12.39876 -4.53024,20.14348 -14.73534,24.65769 -7.66945,3.39256 -13.47238,2.68235 -61.11224,-7.47939 -23.8644,-5.09036 -44.40678,-9.22502 -45.64971,-9.18813 -1.24294,0.0369 -21.37853,4.10023 -44.74577,9.02962 -45.78547,9.6586 -49.37041,10.24983 -55.68094,9.18293 z"
       style="fill:#ffffff;fill-opacity:1;stroke:#ffffff;stroke-width:3.41652203;stroke-miterlimit:4;stroke-dasharray:none;stroke-opacity:1" />
    <path
       inkscape:connector-curvature="0"
       id="path2664"
       d="m 245.09231,182.0331 c -10.27587,-2.76705 -19.23621,-8.89029 -25.16262,-17.19542 -5.24181,-7.34573 -7.74486,-14.37048 -8.30726,-23.31409 -0.56163,-8.93132 0.85001,-15.49223 5.07758,-23.59904 14.27462,-27.373156 50.86957,-32.09301 72.0568,-9.29356 15.84792,17.05385 15.84792,43.05233 0,60.10618 -11.27904,12.13731 -28.49696,17.3802 -43.6645,13.29593 z"
       style="fill:#ffffff;fill-opacity:1;stroke:#ffffff;stroke-width:3.41652203;stroke-miterlimit:4;stroke-dasharray:none;stroke-opacity:1" />
    <path
       sodipodi:nodetypes="ssssssssssssssscsssccsccscscscsssscccscscsscccsscss"
       inkscape:connector-curvature="0"
       id="path2674"
       d="m 233.77535,510.60945 c -21.0032,-1.86513 -46.01095,-7.50809 -66.12236,-14.92039 -24.0141,-8.85068 -51.53284,-24.42704 -71.939821,-40.71988 C 85.10622,446.50063 64.913264,426.16427 56.31258,415.28877 27.869548,379.3228 10.334615,339.01619 3.0288645,292.80837 0.74535387,278.36549 0.22417142,244.04041 2.0494974,228.30723 8.915956,169.1226 33.962874,116.97707 75.453441,75.486498 114.83177,36.108173 162.59972,12.123137 220.00695,2.9039221 c 14.36695,-2.30723609 57.09523,-2.29483817 71.86441,0.020852 24.50924,3.8428564 47.67059,10.5566469 68.24858,19.7832429 68.57207,30.745795 120.59135,90.584793 141.4245,162.683923 10.44283,36.14045 12.64972,76.07739 6.28545,113.74411 -14.07688,83.31337 -70.19394,155.50909 -147.8545,190.21775 -38.99927,17.42987 -83.9761,25.00524 -126.20004,21.25565 z m -21.51327,-96.7334 43.78055,-9.22747 43.45109,9.15213 c 23.8981,5.03366 45.70651,9.40733 48.46314,9.71925 9.8039,1.10933 21.55891,-2.98151 27.27516,-9.49195 11.04714,-12.58199 10.14355,-35.80725 -1.91397,-49.19534 -1.79003,-1.98757 -6.71223,-5.96827 -5.96647,-5.6696 0.74576,0.29868 7.62726,3.82498 10.32046,4.65983 9.43538,2.92483 19.75804,-0.226 27.11593,-8.27672 5.17769,-5.66521 7.31286,-11.1727 7.30054,-18.83105 -0.016,-9.93277 -1.7073,-12.27502 -28.31098,-39.20701 l -23.84057,-24.13478 -20.23407,-35.2389 c -11.12875,-19.38139 -21.46046,-36.63707 -22.95936,-38.34596 -5.9493,-6.78272 -17.96091,-12.26476 -31.86242,-14.54185 l -6.53826,-1.07098 5.39439,-3.60223 c 26.54913,-17.72884 30.20514,-54.55935 7.66486,-77.21559 -19.94274,-20.045319 -51.63729,-19.875876 -71.19328,0.38061 -9.59914,9.94298 -14.21317,21.28742 -14.21317,34.94564 0,14.3112 5.18719,26.42938 15.46214,36.12224 3.41369,3.22029 7.67764,6.60973 9.47546,7.53206 l 3.26877,1.67698 -7.64693,1.13767 c -14.93904,2.22256 -26.75411,8.09619 -32.59039,16.20168 -1.67202,2.32211 -11.89885,19.67965 -22.72632,38.5723 l -19.68628,34.35029 -23.80653,23.9548 c -26.57074,26.73621 -27.786164,28.43029 -27.900288,38.88779 -0.154296,14.13832 11.274588,26.48463 25.686148,27.74804 4.59731,0.40304 10.43152,-1.99386 17.06757,-4.77399 1.40673,-0.58933 -1.89294,1.86541 -4.18717,4.76216 -1.61559,2.03983 -4.25658,6.49408 -5.86889,9.89833 -2.77723,5.86388 -2.93147,6.73648 -2.93147,16.58501 0,8.71216 0.31285,11.07209 1.93205,14.57392 5.41912,11.71996 17.28112,18.42551 31.0623,17.55943 3.23164,-0.20309 25.57696,-4.52163 49.65626,-9.59674 z"
       style="fill:#446367;fill-opacity:1;stroke:#ffffff;stroke-width:3.41652203;stroke-miterlimit:4;stroke-dasharray:none;stroke-opacity:1" />
    <path
       inkscape:connector-curvature="0"
       id="path2676"
       d="m 337.65421,349.86406 -26.98552,-7.79016 0.58575,-18.07909 c 0.32215,-9.9435 0.82119,-19.28037 1.10896,-20.74859 l 0.52322,-2.6695 1.73983,3.39127 c 0.95691,1.86521 2.63525,4.45979 3.72966,5.76574 8.96279,10.69532 17.20817,19.19225 31.27146,32.2255 9.00245,8.34307 16.36808,15.34127 16.36808,15.55155 0,0.55348 0.98576,0.81944 -28.34144,-7.64672 z"
       style="fill:#446367;fill-opacity:1;stroke:#ffffff;stroke-width:3.41652203;stroke-miterlimit:4;stroke-dasharray:none;stroke-opacity:1" />
    <path
       inkscape:connector-curvature="0"
       id="path2678"
       d="m 152.21034,351.48044 c 26.61269,-24.76474 38.62419,-37.26924 43.68073,-45.47356 l 3.32492,-5.39473 0.56169,6.2676 c 0.30893,3.44718 0.71571,12.75714 0.90396,20.6888 l 0.34226,14.4212 -19.887,5.67416 c -17.63772,5.03239 -31.68656,9.30623 -35.70622,10.8623 -0.74576,0.28869 2.30509,-2.8819 6.77966,-7.04577 z"
       style="fill:#446367;fill-opacity:1;stroke:#ffffff;stroke-width:3.41652203;stroke-miterlimit:4;stroke-dasharray:none;stroke-opacity:1" />
  </g>
</svg>
